<svg id="img" width="123" height="36" viewBox="0 0 100 36" fill="none" xmlns="http://www.w3.org/2000/svg">
<g clip-path="url(#clip0_1242_1554)">
<path d="M 64.3 7.9 H 62.5 C 62.8 8.6 62.9 9.4 62.8 10.1 C 62.6 11.8 61.6 12.8 60 13.3 C 59.1 13.6 58.1 13.6 57.1 13.4 C 56.7 13.3 56.4 13.4 56.3 13.7 C 56.1 14.1 56.2 14.7 56.6 14.8 C 56.9 15 57.3 15 57.7 15.1 C 58.7 15.1 59.7 15.1 60.8 15.1 C 61.8 15.2 62.9 15.3 63.8 16.1 C 64.7 16.9 64.8 18.4 64.2 19.6 C 63.7 20.7 62.8 21.3 61.7 21.7 C 59.6 22.5 57.4 22.6 55.2 22.1 C 54.5 21.9 53.8 21.6 53.3 21 C 52.4 19.8 52.6 18.3 53.8 17.4 C 54.1 17.2 54.3 17.1 54.5 16.9 C 53.7 16.3 53.3 15.6 53.4 14.7 C 53.5 13.7 54.1 13.1 54.7 12.6 C 54.4 12.2 54 11.8 53.7 11.4 C 52.2 9.1 53.6 5.9 56.4 5.3 C 57.6 5 58.7 5 59.9 5.3 C 60 5.4 60.2 5.4 60.4 5.4 H 64.3 L 64.3 7.9 Z M 58.3 20.3 L 58.3 20.2 C 58.5 20.2 58.7 20.2 58.9 20.2 C 59.6 20.1 60.3 20 60.8 19.4 C 61 19.1 61.1 18.8 61.1 18.5 C 61.1 18.1 60.7 18 60.4 17.9 C 60.1 17.8 59.8 17.8 59.6 17.8 C 58.6 17.7 57.6 17.7 56.6 17.7 C 56.5 17.7 56.4 17.7 56.3 17.7 C 55.7 18.3 55.4 19.3 56.3 19.7 C 56.9 20 57.6 20.1 58.3 20.3 Z M 58.2 7.5 C 57.3 7.5 56.6 8 56.5 8.9 C 56.4 9.6 56.4 10.4 57 11 C 57.2 11.2 57.5 11.3 57.7 11.3 C 58 11.4 58.3 11.4 58.6 11.3 C 58.8 11.3 59.1 11.1 59.3 10.9 C 59.5 10.7 59.6 10.5 59.7 10.2 C 60.1 8.8 59.4 7.5 58.2 7.5 Z" fill="#2a292f"/>
<path d="M 92.7 17.3 H 89.2 V 5.4 H 92.1 C 92.1 5.9 92.2 6.4 92.3 6.9 C 92.9 6.5 93.5 6 94 5.7 C 95.6 4.6 98.1 4.9 99.1 6.3 C 99.7 7.2 100 8.2 100 9.2 C 100 11.9 100 14.6 100 17.3 H 96.5 C 96.5 17.1 96.5 16.9 96.5 16.7 C 96.5 14.5 96.5 12.3 96.4 10 C 96.4 9.9 96.4 9.7 96.4 9.6 C 96.3 8.3 95.2 7.7 94 8.3 C 93.6 8.5 93.2 8.8 92.9 9.2 C 92.8 9.2 92.7 9.5 92.7 9.7 C 92.7 12 92.7 14.4 92.7 16.8 L 92.7 17.3 Z" fill="#2a292f"/>
<path d="M 50.4 17.3 H 46.9 V 16.8 C 46.9 14.7 46.9 12.6 46.9 10.5 C 46.9 10 46.9 9.6 46.8 9.2 C 46.6 8.4 46.1 8 45.3 8.1 C 44.4 8.1 43.8 8.6 43.3 9.2 C 43.2 9.3 43.1 9.5 43.2 9.6 C 43.2 12 43.2 14.4 43.2 16.8 V 17.3 H 39.6 V 5.4 H 42.5 C 42.6 5.9 42.7 6.4 42.8 6.9 C 43.3 6.5 43.7 6.2 44.1 5.9 C 45.4 5 46.8 4.9 48.3 5.4 C 49.2 5.7 49.8 6.4 50 7.3 C 50.3 8.1 50.4 8.9 50.4 9.7 C 50.5 12.1 50.5 14.6 50.5 17.1 C 50.5 17.1 50.4 17.2 50.4 17.3 Z" fill="#2a292f"/>
<path d="M 86.7 11.1 C 86.6 13.2 86.1 14.9 84.6 16.2 C 82.8 17.7 80.7 18 78.5 17.1 C 76.1 16.2 74.8 13.9 74.9 11.2 C 75 9.4 75.5 7.8 76.8 6.6 C 77.7 5.9 78.7 5.4 79.8 5.2 C 80.9 5 82.1 5.1 83.1 5.5 C 85.6 6.7 86.6 8.7 86.7 11.1 Z M 78.5 11.4 C 78.6 12.1 78.8 12.9 79.1 13.6 C 79.3 14.4 80 14.7 80.8 14.7 C 81.6 14.7 82.2 14.4 82.5 13.7 C 82.9 12.9 83 12.1 83 11.3 C 83 10.5 82.8 9.7 82.5 9 C 82.1 8.2 81.5 7.9 80.7 8 C 79.8 8 79.3 8.4 79 9.2 C 78.8 9.8 78.7 10.6 78.5 11.4 H 78.5 Z" fill="#2a292f"/>
<path d="M 0.4 6.7 C 2.2 5.7 3.9 5 5.9 5.1 C 8.4 5.2 9.9 6.5 10.3 8.9 C 10.3 9.4 10.4 10 10.4 10.5 C 10.4 12.6 10.4 14.8 10.4 17 C 10.4 17.1 10.4 17.2 10.4 17.3 H 7.5 L 7.2 16.1 C 6.7 16.5 6.2 16.8 5.6 17.1 C 4.5 17.7 3.2 17.8 2 17.3 C 0.6 16.6 0.1 15.5 0 14 C 0 12.6 0.7 11.5 2 10.9 C 3.2 10.2 4.7 9.9 6.1 9.7 L 6.8 9.6 C 6.8 8.5 6 7.9 4.8 7.9 C 4 8 3.1 8.2 2.4 8.6 C 2.2 8.7 2 8.8 1.7 9 L 0.4 6.7 Z M 6.8 11.8 C 5.8 11.9 4.9 12 4 12.6 C 3.8 12.8 3.6 13 3.5 13.3 C 3.4 13.5 3.4 13.8 3.5 14.1 C 3.6 14.6 4 14.8 4.7 14.8 C 5.1 14.9 5.5 14.8 5.9 14.6 C 6.2 14.4 6.7 14 6.8 13.7 C 6.9 13.1 6.8 12.4 6.8 11.8 Z" fill="#2a292f"/>
<path d="M 73.3 14.6 C 73.5 15.5 73.7 16.3 73.9 17.2 C 72.1 17.6 70.4 18 68.7 17 C 67.5 16.2 67.1 15 67.1 13.7 C 67 12.1 67 10.4 67 8.8 C 67 8.6 67 8.4 67 8.1 H 65.4 C 65.4 7.3 65.4 6.5 65.4 5.7 C 65.4 5.6 65.6 5.5 65.7 5.5 C 66.2 5.4 66.7 5.4 67.2 5.4 L 67.6 2.2 C 68.5 2.2 69.4 2.2 70.3 2.2 C 70.4 2.2 70.6 2.4 70.6 2.6 C 70.6 3.5 70.6 4.4 70.6 5.4 H 73.5 V 8.1 H 70.6 V 8.7 C 70.6 10.2 70.6 11.6 70.6 13.1 C 70.7 14.5 71.5 15.1 72.9 14.7 L 73.3 14.6 Z" fill="#2a292f"/>
<path d="M 86.3 35.7 C 85.5 35.7 84.6 35.7 83.8 35.7 C 83.7 35.7 83.6 35.5 83.5 35.4 C 83.3 34.9 83.1 34.3 82.9 33.8 C 82.9 33.7 82.9 33.6 82.8 33.5 C 82.7 33.4 82.5 33.4 82.4 33.4 C 81.3 33.4 80.3 33.4 79.2 33.4 C 79.1 33.4 79.1 33.4 79 33.4 C 79 33.4 78.9 33.5 78.9 33.5 C 78.8 33.5 78.8 33.6 78.8 33.6 C 78.7 33.7 78.7 33.7 78.7 33.8 C 78.5 34.3 78.3 34.8 78.2 35.3 C 78.2 35.4 78.2 35.5 78.1 35.5 C 78.1 35.6 78.1 35.6 78 35.6 C 78 35.7 77.9 35.7 77.9 35.7 C 77.8 35.7 77.7 35.7 77.7 35.7 C 76.9 35.7 76.2 35.7 75.4 35.7 C 75.6 35 75.9 34.3 76.2 33.6 C 77.2 30.8 78.3 27.9 79.3 25.1 C 79.7 24.3 79.6 24.2 80.6 24.3 C 81.1 24.3 81.7 24.1 82.1 24.4 C 82.4 24.6 82.5 25.2 82.6 25.7 C 83.8 28.9 85.1 32.2 86.3 35.5 C 86.3 35.5 86.3 35.6 86.3 35.7 Z M 82.1 31.2 C 81.7 29.9 81.3 28.7 80.9 27.4 L 80.8 27.4 C 80.4 28.7 80 29.9 79.5 31.2 H 82.1 Z" fill="#2a292f"/>
<path d="M 26 35.7 C 25.1 35.7 24.3 35.7 23.6 35.7 C 23.5 35.7 23.4 35.6 23.3 35.6 C 23.2 35.5 23.2 35.4 23.1 35.3 C 22.9 34.7 22.7 34.1 22.4 33.4 C 21.2 33.4 19.9 33.4 18.7 33.4 C 18.6 33.4 18.6 33.5 18.5 33.5 C 18.5 33.6 18.4 33.6 18.4 33.7 C 18.2 34.3 18 34.8 17.8 35.4 C 17.7 35.5 17.6 35.7 17.5 35.7 C 16.7 35.7 15.9 35.7 15 35.7 L 15.7 33.7 C 16.9 30.7 18 27.7 19.1 24.7 C 19.3 24.3 19.4 24.2 19.8 24.2 C 20.3 24.3 20.7 24.3 21.2 24.2 C 21.6 24.2 21.8 24.3 21.9 24.7 C 23.2 28.3 24.6 31.8 25.9 35.4 C 25.9 35.5 25.9 35.5 26 35.7 Z M 19.2 31.2 H 21.7 C 21.3 29.9 20.9 28.7 20.5 27.4 L 20.4 27.4 C 20 28.7 19.6 29.9 19.2 31.2 H 19.2 Z" fill="#2a292f"/>
<path d="M 7.8 32.3 L 9.5 34.1 C 8.3 35.8 5.9 36.4 3.7 35.7 C 2 35.1 0.9 33.8 0.4 32.1 C -0.3 29.8 -0.1 27.6 1.5 25.8 C 3.2 23.6 6.9 23.3 9 25.1 C 9.5 25.5 9.5 25.6 9.1 26 C 8.8 26.3 8.6 26.5 8.4 26.8 C 8.2 27 8 27.2 7.8 27.4 C 6.4 25.7 3.7 26.2 2.9 28.6 C 2.8 29.1 2.7 29.7 2.7 30.3 C 2.8 30.8 2.9 31.4 3.2 31.9 C 4.2 33.8 6.6 33.9 7.7 32.5 C 7.7 32.4 7.8 32.4 7.8 32.3 Z" fill="#2a292f"/>
<path d="M 13.5 5.4 H 16.4 C 16.5 6.1 16.6 6.7 16.7 7.5 C 17.2 6.6 17.8 5.9 18.7 5.4 C 19.2 5.2 19.7 5.1 20.2 5.1 C 20.6 5.1 21.1 5.2 21.6 5.3 C 21.4 6.3 21.2 7.3 21 8.3 C 20.7 8.3 20.3 8.3 20 8.2 C 18.4 8 17 9.7 17 10.9 C 17.1 12.9 17 14.8 17 16.8 V 17.3 H 13.5 V 5.4 Z" fill="#2a292f"/>
<path d="M 23.2 5.4 H 26.1 C 26.2 6.1 26.3 6.8 26.3 7.6 C 27.5 5.6 29 4.6 31.3 5.3 C 31.1 6.3 30.9 7.3 30.7 8.3 C 30.3 8.3 30 8.2 29.7 8.2 C 28.2 8.1 26.7 9.4 26.7 10.9 C 26.7 12.9 26.7 14.8 26.7 16.8 V 17.3 H 23.2 L 23.2 5.4 Z" fill="#2a292f"/>
<path d="M 33.3 24.3 C 34.9 24.3 36.5 24.2 38.1 24.3 C 40.5 24.6 41.2 26.3 41 28.4 C 40.7 30.3 39.3 31.2 37.3 31.3 C 36.8 31.4 36.3 31.3 35.7 31.3 V 35.7 H 33.3 V 24.3 Z M 35.7 29.2 C 36.4 29.1 37 29.1 37.6 29 C 38.2 29 38.5 28.5 38.5 27.9 C 38.6 27.2 38.4 26.8 37.8 26.6 C 37.1 26.5 36.4 26.5 35.7 26.4 V 29.2 Z" fill="#2a292f"/>
<path d="M 36.4 5.4 V 17.3 H 32.9 V 5.4 H 36.4 Z" fill="#2a292f"/>
<path d="M 65.9 35.7 H 63.5 V 26.6 H 60.6 V 24.3 H 68.8 V 26.6 H 65.9 V 35.7 Z" fill="#2a292f"/>
<path d="M 99.9 33.3 V 35.7 H 93.5 V 24.3 H 95.9 V 33.3 H 99.9 Z" fill="#2a292f"/>
<path d="M 52 35.7 C 51.8 35.7 51.7 35.7 51.6 35.7 H 49.5 V 24.3 H 52 L 52 35.7 Z" fill="#2a292f"/>
<path d="M 34.7 3.5 C 33.2 3.5 32.3 2.4 32.8 1.2 C 33 0.4 33.7 0 34.5 0 C 35.4 0 36.4 0.3 36.6 1.5 C 36.8 2.7 35.9 3.4 35.1 3.5 C 34.9 3.5 34.8 3.5 34.7 3.5 Z" fill="#2a292f"/>
</g>
<defs>
<clipPath id="clip0_1242_1554">
<rect width="100" height="36" fill="#2a292f" transform="translate(0)"/>
</clipPath>
</defs>
</svg>
