<svg id="img" width="123" height="36" viewBox="0 0 100 36" fill="none" xmlns="http://www.w3.org/2000/svg">
<g clip-path="url(#clip0_1242_1848)">
<path d="M 83.8 15.4 V 18.5 H 83.4 C 79.7 18.5 75.9 18.5 72.2 18.5 C 71.8 18.5 71.8 18.4 71.8 18.1 C 71.8 13.2 71.8 8.3 71.8 3.3 C 71.8 3 71.9 2.9 72.2 2.9 C 75.9 2.9 79.6 2.9 83.3 2.9 C 83.6 2.9 83.7 3 83.7 3.3 C 83.7 4.1 83.7 4.9 83.7 5.6 C 83.7 5.9 83.6 6 83.3 6 C 80.8 6 78.3 6 75.8 6 H 75.3 V 7.1 C 75.3 7.6 75.3 8.2 75.3 8.8 C 75.3 9 75.4 9.1 75.7 9.1 C 77.9 9.1 80.1 9.1 82.3 9.1 C 82.6 9.1 82.7 9.2 82.7 9.6 C 82.7 10.3 82.7 11 82.7 11.7 C 82.7 12.2 82.7 12.2 82.2 12.2 C 80.1 12.2 77.9 12.2 75.7 12.2 C 75.4 12.2 75.3 12.3 75.3 12.6 C 75.3 13.4 75.3 14.2 75.3 15 C 75.3 15.4 75.4 15.5 75.7 15.5 C 78.3 15.4 80.8 15.5 83.3 15.5 L 83.8 15.4 Z" fill="#2a292f"/>
<path d="M 3.5 9.1 H 9.9 V 2.9 C 10 2.9 10.1 2.9 10.2 2.9 C 11.2 2.9 12.1 2.9 13.1 2.9 C 13.3 2.9 13.4 3 13.4 3.2 C 13.4 8.2 13.4 13.2 13.4 18.2 C 13.4 18.3 13.4 18.4 13.4 18.5 H 9.9 V 12.3 H 3.5 V 12.7 C 3.5 14.5 3.5 16.3 3.5 18.1 C 3.5 18.4 3.5 18.5 3.1 18.5 C 2.2 18.5 1.3 18.5 0.3 18.5 C 0.1 18.5 0 18.5 0 18.2 C 0 13.2 0 8.2 0 3.2 C 0 3 0.1 2.9 0.4 2.9 C 1.3 2.9 2.2 2.9 3.2 2.9 C 3.5 2.9 3.5 3 3.5 3.2 C 3.5 5 3.5 6.8 3.5 8.6 L 3.5 9.1 Z" fill="#2a292f"/>
<path d="M 59.8 18.5 H 56.3 C 56.3 18.4 56.3 18.2 56.3 18.1 C 56.3 16.3 56.3 14.5 56.3 12.7 C 56.3 12.4 56.2 12.2 55.9 12.2 C 54 12.3 52.1 12.3 50.3 12.2 C 49.9 12.2 49.9 12.3 49.9 12.6 C 49.9 14.5 49.9 16.3 49.9 18.1 C 49.9 18.4 49.8 18.5 49.5 18.5 C 48.6 18.5 47.7 18.5 46.8 18.5 C 46.6 18.5 46.5 18.5 46.4 18.5 V 2.9 H 48.1 C 48.6 2.9 49 2.9 49.5 2.9 C 49.8 2.9 49.9 3 49.9 3.2 C 49.9 5 49.9 6.8 49.9 8.6 C 49.9 9 50 9.1 50.3 9.1 C 52.2 9.1 54 9.1 55.9 9.1 C 56.2 9.1 56.3 9 56.3 8.7 C 56.3 6.9 56.3 5.1 56.3 3.3 C 56.3 3 56.4 2.9 56.7 2.9 C 57.6 2.9 58.5 2.9 59.4 2.9 C 59.7 2.9 59.8 2.9 59.8 3.2 C 59.8 8.2 59.8 13.2 59.8 18.2 C 59.8 18.3 59.8 18.4 59.8 18.5 Z" fill="#2a292f"/>
<path d="M 31.7 18.5 H 31.2 C 30.4 18.5 29.5 18.5 28.6 18.5 C 28.1 18.6 27.9 18.4 27.8 18 C 27.5 17.1 27.1 16.3 26.8 15.5 C 26.6 15.1 26.5 15 26.1 15 C 24.2 15 22.3 15 20.4 15 C 20 15 19.8 15.1 19.7 15.5 C 19.4 16.4 19 17.4 18.6 18.3 C 18.5 18.3 18.5 18.4 18.4 18.4 C 18.4 18.5 18.3 18.5 18.3 18.5 C 17.2 18.5 16.1 18.5 15.1 18.5 C 15 18.5 15 18.5 14.9 18.5 C 15 18.4 15 18.3 15 18.2 C 17.2 13.2 19.4 8.1 21.5 3.1 C 21.6 3 21.6 2.9 21.7 2.8 C 21.8 2.8 21.9 2.8 22.1 2.8 C 22.9 2.8 23.7 2.8 24.6 2.8 C 24.7 2.8 24.8 2.8 24.9 2.8 C 24.9 2.9 25 3 25 3.1 C 27.2 8.1 29.3 13.1 31.5 18.1 C 31.5 18.2 31.6 18.4 31.7 18.5 Z M 23.3 7.1 H 23.2 L 21.2 11.9 H 25.3 C 24.6 10.3 24 8.7 23.3 7.1 Z" fill="#2a292f"/>
<path d="M 31.9 16.3 C 32.6 15.4 33.2 14.6 33.9 13.8 C 34.3 14.1 34.7 14.4 35.1 14.6 C 36.4 15.4 37.9 15.9 39.4 15.6 C 39.8 15.5 40.1 15.4 40.4 15.2 C 40.6 15.1 40.7 14.9 40.8 14.7 C 40.9 14.6 40.9 14.4 40.9 14.2 C 40.9 14 40.9 13.8 40.8 13.6 C 40.7 13.4 40.5 13.3 40.4 13.2 C 39.8 12.9 39.2 12.6 38.6 12.4 C 37.6 12.1 36.7 11.9 35.8 11.6 C 35.7 11.6 35.7 11.6 35.6 11.6 C 33.4 10.8 32.5 9.5 32.5 7.4 C 32.5 5.3 33.7 3.7 35.8 3 C 38.2 2.3 40.5 2.7 42.7 3.8 C 43.1 4.1 43.5 4.4 43.9 4.6 C 43.3 5.5 42.7 6.4 42.1 7.3 C 41.9 7.1 41.7 7 41.4 6.8 C 40.5 6.3 39.5 5.8 38.4 5.8 C 37.9 5.7 37.4 5.8 36.9 5.9 C 36.6 6 36.4 6.1 36.3 6.3 C 36.1 6.5 36 6.7 36 7 C 35.9 7.6 36.2 8.1 36.7 8.3 C 37.5 8.6 38.3 8.8 39.1 9.1 C 40.1 9.4 41 9.7 41.9 10.1 C 43.6 10.8 44.4 12.1 44.4 13.9 C 44.4 15.7 43.6 17.1 41.9 18 C 40.5 18.8 39 18.9 37.4 18.7 C 35.4 18.5 33.6 17.7 32.1 16.5 C 32 16.4 31.9 16.3 31.9 16.3 Z" fill="#2a292f"/>
<path d="M 84.4 2.9 C 84.6 2.9 84.7 2.9 84.8 2.9 C 85.9 2.9 87 2.9 88.1 2.9 C 88.2 2.9 88.3 2.9 88.4 3 C 88.5 3 88.6 3.1 88.6 3.2 C 89.7 5.1 90.9 6.9 92 8.8 C 92 8.9 92.1 9 92.2 9.1 C 92.4 8.8 92.6 8.5 92.8 8.2 C 93.8 6.5 94.8 4.8 95.9 3.2 C 95.9 3.1 96.1 2.9 96.2 2.9 C 97.4 2.9 98.7 2.9 100 2.9 C 99.9 3.1 99.8 3.2 99.7 3.3 C 97.9 6.2 96 9.1 94.1 12 C 94 12.2 93.9 12.4 93.9 12.7 C 93.9 14.5 93.9 16.2 93.9 18 V 18.5 H 90.4 V 18.1 C 90.4 16.3 90.4 14.5 90.4 12.8 C 90.4 12.5 90.4 12.3 90.2 12.1 C 88.4 9.1 86.5 6.2 84.6 3.2 C 84.5 3.1 84.5 3 84.4 2.9 Z" fill="#2a292f"/>
<path d="M 75.1 33.3 C 72.5 33.3 70.6 31.5 70.6 29 C 70.6 26.4 72.6 24.5 75.1 24.5 C 77.7 24.5 79.6 26.4 79.6 28.9 C 79.6 31.4 77.7 33.3 75.1 33.3 Z M 78 29 C 78 27.2 76.8 25.9 75.1 25.9 C 73.5 25.9 72.2 27.2 72.2 28.9 C 72.2 30.6 73.5 31.9 75.1 31.9 C 76.8 31.9 78 30.7 78 29 Z" fill="#2a292f"/>
<path d="M 67.5 30 L 69.7 33.2 C 69.1 33.2 68.6 33.2 68 33.2 C 67.9 33.2 67.8 33 67.7 32.9 C 67.2 32.1 66.6 31.3 66 30.5 C 65.9 30.4 65.9 30.3 65.8 30.3 C 65.7 30.2 65.6 30.2 65.5 30.2 C 65 30.2 64.5 30.2 63.9 30.2 V 33.2 H 62.4 V 24.7 C 62.5 24.7 62.6 24.7 62.7 24.7 C 63.9 24.7 65.2 24.7 66.5 24.7 C 66.8 24.7 67.1 24.7 67.4 24.8 C 68.7 25.2 69.4 26 69.5 27.2 C 69.6 28.4 68.9 29.4 67.7 29.9 C 67.7 29.9 67.6 30 67.5 30 Z M 64 26.1 V 28.8 C 64.9 28.8 65.8 28.9 66.7 28.8 C 67.5 28.7 67.9 28.2 67.9 27.4 C 67.9 26.7 67.4 26.1 66.6 26.1 C 65.7 26 64.9 26.1 64 26.1 V 26.1 Z" fill="#2a292f"/>
<path d="M 60.2 25.7 L 59.3 26.8 C 58.8 26.5 58.3 26.2 57.7 26 C 55.5 25.5 53.7 27.3 54.1 29.6 C 54.5 31.4 56.1 32.3 57.9 31.8 C 58 31.8 58.1 31.8 58.2 31.7 C 59 31.4 59 31.4 59 30.6 V 29.7 C 58.5 29.7 57.9 29.7 57.4 29.7 C 56.8 29.7 56.8 29.8 56.8 29.2 C 56.8 29 56.8 28.7 56.8 28.5 H 60.5 C 60.5 28.6 60.5 28.7 60.5 28.8 C 60.5 29.8 60.5 30.7 60.5 31.7 C 60.5 31.9 60.5 32 60.4 32.1 C 58.6 33.6 56.1 33.7 54.5 32.7 C 52.9 31.7 52.1 29.8 52.6 27.8 C 52.8 26.9 53.3 26.1 54 25.6 C 54.7 25 55.6 24.6 56.5 24.5 C 57.8 24.4 58.9 24.7 60 25.5 C 60 25.5 60.1 25.6 60.2 25.7 Z" fill="#2a292f"/>
<path d="M 70.4 2.9 L 63.1 10.1 C 62.3 9.3 61.5 8.5 60.7 7.7 C 61 7.4 61.4 7 61.7 6.7 C 62.9 5.5 64.1 4.3 65.4 3.1 C 65.5 3 65.6 2.9 65.8 2.9 C 67.3 2.9 68.8 2.9 70.2 2.9 C 70.3 2.9 70.3 2.9 70.4 2.9 Z" fill="#2a292f"/>
<path d="M 87 24.7 C 87.5 24.7 87.9 24.7 88.3 24.7 C 88.4 24.7 88.5 24.8 88.5 24.9 C 88.5 26.7 88.6 28.5 88.5 30.3 C 88.4 32.1 87 33.3 85.1 33.3 C 84.7 33.3 84.2 33.3 83.8 33.2 C 82.2 32.9 81.2 31.8 81.2 30 C 81.1 28.3 81.2 26.6 81.2 24.9 C 81.2 24.9 81.2 24.8 81.2 24.8 C 81.3 24.7 81.3 24.7 81.4 24.7 C 81.8 24.7 82.2 24.7 82.7 24.7 V 25.1 C 82.7 26.5 82.7 27.9 82.7 29.3 C 82.7 29.5 82.7 29.7 82.7 29.9 C 82.8 31.2 83.6 32 85 31.9 C 86.2 31.9 87 31.1 87 29.7 C 87 28.2 87 26.7 87 25.1 L 87 24.7 Z" fill="#2a292f"/>
<path d="M 92.1 30.5 V 33.2 H 90.6 V 24.7 C 90.6 24.7 90.6 24.7 90.6 24.7 C 92 24.7 93.5 24.6 94.9 24.8 C 96.9 25.1 97.9 27.2 96.9 29 C 96.3 29.9 95.4 30.3 94.4 30.4 C 93.8 30.5 93.2 30.5 92.6 30.5 C 92.4 30.5 92.3 30.5 92.1 30.5 Z M 92.1 29.1 C 92.8 29.1 93.4 29.1 94 29.1 C 94.3 29.1 94.6 29 94.9 28.8 C 95.5 28.6 95.7 28.1 95.7 27.4 C 95.7 27.2 95.6 26.9 95.4 26.7 C 95.2 26.5 95 26.3 94.7 26.2 C 93.9 25.9 93 26.1 92.1 26.1 L 92.1 29.1 Z" fill="#2a292f"/>
<path d="M 60.7 13.6 C 61.1 13.3 61.4 13 61.8 12.7 C 62.1 12.4 62.5 12 62.9 11.6 C 63.1 11.4 63.2 11.4 63.4 11.6 C 64.7 12.9 66 14.1 67.2 15.4 L 70 18.1 C 70.1 18.2 70.2 18.3 70.3 18.4 C 70.1 18.4 70.1 18.5 70 18.5 C 68.6 18.5 67.2 18.5 65.8 18.5 C 65.7 18.5 65.5 18.4 65.4 18.3 C 63.9 16.8 62.5 15.4 61 13.9 C 60.9 13.9 60.9 13.8 60.7 13.6 Z" fill="#2a292f"/>
<path d="M 50.3 29 L 46.4 32.7 V 25.2 L 50.3 29 Z" fill="#2a292f"/>
</g>
<defs>
<clipPath id="clip0_1242_1848">
<rect width="100" height="36" fill="#2a292f"/>
</clipPath>
</defs>
</svg>
