<svg id="img" width="123" height="36" viewBox="0 0 123 18" fill="none" xmlns="http://www.w3.org/2000/svg">
<g clip-path="url(#clip0_1242_648)">
<path d="M 43.7 17.3 H 43.2 C 41.6 17.3 40.1 17.3 38.5 17.3 C 37.9 17.3 37.4 17.4 36.8 17.4 C 35.1 17.5 33.8 16.8 32.6 15.5 C 31.6 14.4 31.2 13 31.2 11.6 C 31.2 10 31.2 8.4 31.2 6.8 C 31.2 5.7 31.4 4.7 31.8 3.8 C 32.4 2.5 33.4 1.5 34.7 1 C 36.3 0.4 38 0.3 39.6 1.1 C 41.2 1.9 42.3 3.3 42.6 5.2 C 42.8 6 42.8 6.8 42.8 7.6 C 42.8 9.1 42.8 10.7 42.7 12.2 C 42.7 12.9 42.5 13.6 42.2 14.3 C 42.2 14.3 42.2 14.4 42.2 14.5 C 42.2 14.6 42.2 14.6 42.3 14.7 C 42.7 15.5 43.2 16.3 43.6 17.1 C 43.6 17.2 43.7 17.2 43.7 17.3 Z M 34.2 9 C 34.2 10.1 34.3 11.2 34.4 12.2 C 34.4 12.8 34.6 13.3 35 13.7 C 35.9 14.5 36.9 14.7 38 14.3 C 39 13.9 39.4 13.1 39.5 12.1 C 39.7 10 39.7 8 39.5 5.9 C 39.4 4.8 38.9 4.1 37.9 3.7 C 36.6 3.2 34.7 3.8 34.4 5.6 C 34.3 6.8 34.2 7.9 34.2 9 Z" fill="#2a292f"/>
<path d="M 63.6 8.7 C 63.6 7.7 63.6 6.5 63.8 5.3 C 64.1 3.2 65.4 1.7 67.3 1 C 69.6 0 72.2 0.7 73.9 2.6 C 74.7 3.5 75.1 4.6 75.2 5.8 C 75.3 7.9 75.4 10.1 75.2 12.2 C 74.9 14.9 73 17 70.6 17.4 C 68.6 17.7 66.7 17.2 65.2 15.6 C 64.3 14.7 63.8 13.5 63.7 12.2 C 63.7 11.1 63.6 10 63.6 8.7 Z M 66.7 8.9 C 66.8 10 66.8 11 66.9 12 C 66.9 12.8 67.2 13.4 67.8 13.9 C 69.2 15.1 71.7 14.4 72 12.4 C 72.1 11.7 72.1 11 72.1 10.3 C 72.1 8.8 72.1 7.4 72 6 C 72 5.2 71.7 4.6 71.1 4.1 C 69.6 2.9 67.1 3.6 66.9 5.7 C 66.8 6.8 66.8 7.9 66.7 8.9 Z" fill="#2a292f"/>
<path d="M 16.6 0.8 H 27 V 3.5 H 19.7 V 7.4 H 25.9 V 10.4 H 19.7 V 14.5 H 27 V 17.3 H 16.6 L 16.6 0.8 Z" fill="#2a292f"/>
<path d="M 47.5 0.8 H 50.6 V 1.1 C 50.6 4.6 50.6 8.1 50.6 11.5 C 50.6 12.4 50.8 13.1 51.4 13.7 C 52.2 14.6 53.3 14.7 54.4 14.3 C 55.4 14 55.8 13.2 56 12.1 C 56 11.9 56 11.6 56 11.4 C 56 7.9 56 4.5 56 1.1 V 0.8 H 59 C 59.1 0.9 59.1 0.9 59.1 1 C 59.1 4.6 59.1 8.1 59.1 11.6 C 59.1 13.5 58.4 15.1 56.9 16.3 C 56 17 55 17.3 53.8 17.4 C 52.4 17.5 51 17.2 49.8 16.3 C 49.2 15.9 48.7 15.4 48.3 14.8 C 48 14.2 47.7 13.5 47.6 12.8 C 47.5 12.4 47.5 11.9 47.5 11.5 C 47.5 8 47.5 4.6 47.5 1.1 L 47.5 0.8 Z" fill="#2a292f"/>
<path d="M 100.6 17.3 C 100.5 17.3 100.4 17.3 100.3 17.3 C 99.4 17.3 98.6 17.3 97.7 17.3 C 97.5 17.3 97.4 17.2 97.4 17 C 97.1 16.2 96.9 15.4 96.6 14.6 C 96.6 14.4 96.5 14.3 96.2 14.3 C 94.6 14.3 92.9 14.3 91.2 14.3 C 91.1 14.3 91 14.3 91 14.4 C 90.9 14.4 90.8 14.5 90.8 14.6 C 90.6 15.4 90.3 16.2 90 17 C 90 17.1 89.9 17.3 89.8 17.3 C 88.8 17.3 87.8 17.3 86.9 17.3 C 86.8 17.3 86.8 17.2 86.7 17.2 C 86.8 17 86.9 16.8 87 16.5 C 88.7 11.6 90.4 6.6 92.2 1.7 C 92.3 1.5 92.3 1.2 92.4 1 C 92.4 0.9 92.5 0.8 92.5 0.8 C 92.6 0.7 92.7 0.7 92.7 0.7 C 93.4 0.8 94 0.8 94.6 0.7 C 94.7 0.7 94.8 0.8 94.8 0.8 C 94.9 0.8 94.9 0.9 95 1 C 95.9 3.8 96.9 6.6 97.9 9.4 C 98.7 11.9 99.6 14.4 100.5 16.9 C 100.5 17 100.6 17.1 100.6 17.3 Z M 91.7 11.5 H 95.7 L 93.8 5.7 L 93.7 5.7 C 93 7.6 92.4 9.6 91.7 11.5 V 11.5 Z" fill="#2a292f"/>
<path d="M 11.7 2.5 L 9.7 4.5 C 9.3 4.2 9 4 8.6 3.8 C 7.5 3.3 6.3 3.2 5.2 3.6 C 4.9 3.7 4.7 3.9 4.5 4.1 C 4.3 4.3 4.2 4.6 4.1 4.9 C 4 5.2 4 5.4 4.1 5.7 C 4.1 6 4.2 6.3 4.4 6.5 C 4.8 7 5.3 7.3 6 7.4 C 6.8 7.5 7.6 7.6 8.5 7.7 C 9.4 7.8 10.2 8.2 10.8 8.9 C 11.5 9.5 11.9 10.4 12.1 11.3 C 12.3 12.7 12.2 14.1 11.3 15.3 C 10.7 16.1 9.9 16.6 9 17 C 7.1 17.7 5.1 17.6 3.1 17 C 2.1 16.7 1.3 16.1 0.5 15.3 L 2.5 13.3 C 2.8 13.5 3.1 13.7 3.4 13.9 C 4.8 14.7 6.3 14.8 7.8 14.4 C 8.6 14.1 9.1 13.4 9 12.5 C 9 11.6 8.6 10.9 7.8 10.7 C 7.1 10.6 6.3 10.4 5.6 10.4 C 4.4 10.2 3.3 9.9 2.4 9 C 1.8 8.5 1.4 7.8 1.2 7.1 C 0.9 5.6 1 4.2 1.8 2.9 C 2.5 1.8 3.6 1.1 4.8 0.9 C 6.5 0.5 8.2 0.6 9.9 1.2 C 10.5 1.5 11.2 2 11.7 2.5 Z" fill="#2a292f"/>
<path d="M 82.8 17.3 H 79.8 V 0.8 H 82.8 L 82.8 17.3 Z" fill="#2a292f"/>
<path d="M 106.9 15.8 V 0.8 H 108.9 V 1.1 C 108.9 5.2 108.9 9.3 108.9 13.4 C 108.9 13.5 108.9 13.6 108.8 13.7 C 108.8 13.8 108.7 13.9 108.7 13.9 C 108.2 14.5 107.7 15 107.1 15.5 C 107.1 15.6 107 15.7 106.9 15.8 Z" fill="#2a292f"/>
<path d="M 108.3 17.2 C 108.9 16.6 109.5 15.9 110.2 15.3 C 110.2 15.3 110.3 15.2 110.4 15.2 C 114.5 15.2 118.5 15.2 122.5 15.2 C 122.6 15.2 122.6 15.2 122.7 15.2 V 17.3 H 108.4 L 108.3 17.2 Z" fill="#2a292f"/>
<path d="M 122.7 11.1 V 13.1 H 112.3 C 112.3 13.1 112.4 13 112.4 13 C 113 12.4 113.5 11.8 114.1 11.2 C 114.2 11.1 114.3 11.1 114.4 11.1 C 117.1 11.1 119.9 11.1 122.6 11.1 C 122.6 11.1 122.6 11.1 122.7 11.1 Z" fill="#2a292f"/>
<path d="M 110.9 11.6 V 0.8 H 112.8 C 112.8 0.8 112.8 0.9 112.8 1 C 112.8 3.8 112.8 6.6 112.8 9.4 C 112.8 9.5 112.7 9.7 112.6 9.8 C 112.1 10.3 111.6 10.9 111.1 11.4 C 111 11.5 111 11.5 110.9 11.6 Z" fill="#2a292f"/>
<path d="M 118.8 0.7 H 122.7 V 4.8 H 118.8 V 0.7 Z" fill="#2a292f"/>
<path d="M 114.8 0.7 H 116.8 V 1.1 C 116.8 2.4 116.8 3.8 116.8 5.2 C 116.8 5.4 116.7 5.5 116.6 5.7 C 116 6.3 115.4 6.9 114.8 7.5 V 0.7 Z" fill="#2a292f"/>
<path d="M 122.7 9 H 116.3 L 116.2 8.9 C 116.3 8.8 116.5 8.7 116.6 8.6 C 116.8 8.4 116.9 8.2 117.1 8 C 117.5 7.7 117.8 7.2 118.2 7 C 118.6 6.8 119.2 6.9 119.7 6.9 C 120.7 6.9 121.7 6.9 122.7 6.9 V 9 Z" fill="#2a292f"/>
</g>
<defs>
<clipPath id="clip0_1242_648">
<rect width="122.2" height="16.9" fill="#2a292f" transform="translate(0.5,0.5)"/>
</clipPath>
</defs>
</svg>
