<svg id="img" width="100" height="36" viewBox="0 0 100 36" fill="none" xmlns="http://www.w3.org/2000/svg">
<g clip-path="url(#clip0_1242_1823)">
<path d="M 2.5 20.8 C 2.7 21.1 3 21.2 3.3 21.2 H 11 C 11.3 21.2 11.8 21.2 12.1 20.3 C 12.4 19.3 12.4 19.2 12.6 18.5 C 12.7 18.2 12.9 17.7 13.7 17.7 H 21.3 C 21.8 17.7 22.3 17.4 22.5 16.8 C 22.9 15.6 23.1 14.2 23.1 12.8 C 23.1 12.5 22.9 12.2 22.6 12.2 C 20.1 12.2 17.7 12.2 15.3 12.2 C 15 12.2 14.9 12 15 11.8 C 15.3 11 15.5 10.2 15.8 9.4 C 15.9 9.1 16.2 8.5 16.9 8.5 H 21.6 C 22 8.5 22.3 8.1 22.2 7.6 C 21.9 6.9 21.5 6.2 21.1 5.5 C 21 5.2 20.6 5 20.3 5 H 17.9 C 17.6 5 17.1 5.1 16.9 6 C 16.6 6.9 16.5 7.1 16.3 7.7 C 16.2 8 16.1 8.5 15.2 8.5 H 1.6 C 1 8.5 0.5 8.9 0.3 9.5 C 0.1 10.7 -0.1 12 0 13.2 C 0 13.7 0.4 14 0.8 14 C 5 14 9.4 14 13.7 14 C 13.9 14 14 14.2 13.9 14.5 C 13.7 15.3 13.4 16.1 13.2 16.9 C 13.1 17.2 12.8 17.7 12.1 17.7 H 1.7 C 1.3 17.7 1 18.2 1.2 18.6 C 1.6 19.4 2 20.1 2.5 20.8 Z" fill="#2a292f"/>
<path d="M 46.8 6 C 47.1 6 47.2 6.2 47.2 6.5 V 8.6 C 47.2 8.9 47.1 9 46.8 9 H 35.1 C 34.5 9 34.2 9.1 34 9.3 C 33.8 9.5 33.6 9.8 33.6 10.2 V 10.5 C 33.6 10.9 33.8 11.2 34 11.4 C 34.2 11.5 34.5 11.6 35.1 11.6 H 43.8 C 45.3 11.6 46.3 11.9 46.9 12.6 C 47.5 13.2 47.9 14 47.9 15.1 V 16.6 C 47.9 17.1 47.8 17.6 47.7 18.1 C 47.5 18.6 47.3 18.9 47 19.3 C 46.7 19.6 46.3 19.8 45.7 20 C 45.2 20.1 44.6 20.2 43.8 20.2 H 30.6 C 30.3 20.2 30.1 20 30.1 19.7 V 17.7 C 30.1 17.4 30.3 17.2 30.6 17.2 H 42.8 C 43.4 17.2 43.8 17.1 44 16.9 C 44.2 16.8 44.3 16.4 44.3 16 V 15.3 C 44.3 14.9 44.2 14.7 44 14.5 C 43.8 14.3 43.4 14.2 42.8 14.2 H 34.1 C 32.7 14.2 31.7 13.9 31 13.3 C 30.4 12.7 30.1 11.8 30.1 10.7 V 9.6 C 30.1 9 30.1 8.6 30.3 8.1 C 30.4 7.7 30.6 7.3 30.9 7 C 31.3 6.7 31.7 6.4 32.2 6.3 C 32.7 6.1 33.4 6 34.1 6 H 46.8 Z" fill="#2a292f"/>
<path d="M 53.8 6 C 54.2 6 54.4 6.2 54.4 6.6 V 19.7 C 54.4 20 54.2 20.2 53.8 20.2 H 51.3 C 50.9 20.2 50.7 20 50.7 19.7 V 6.6 C 50.7 6.2 50.9 6 51.3 6 H 53.8 Z" fill="#2a292f"/>
<path d="M 71.2 6 C 72.4 6 73.4 6.1 74.1 6.3 C 74.9 6.5 75.6 6.8 76 7.3 C 76.5 7.7 76.9 8.2 77.1 8.9 C 77.3 9.6 77.4 10.4 77.4 11.3 V 19.7 C 77.4 20.1 77.2 20.3 76.8 20.3 H 74.3 C 73.9 20.3 73.7 20.1 73.7 19.7 V 12.2 C 73.7 11.6 73.7 11.2 73.6 10.8 C 73.6 10.4 73.4 10.1 73.2 9.9 C 73 9.7 72.8 9.5 72.4 9.5 C 72.1 9.4 71.6 9.3 71.1 9.3 H 64.2 C 63.6 9.3 63.2 9.4 62.8 9.5 C 62.4 9.5 62.1 9.7 61.9 9.9 C 61.7 10.1 61.5 10.4 61.5 10.8 C 61.4 11.2 61.3 11.6 61.3 12.2 V 19.7 C 61.3 20 61.2 20.2 60.8 20.2 H 58.3 C 57.8 20.2 57.7 20 57.7 19.7 V 11.3 C 57.7 10.3 57.8 9.5 58 8.9 C 58.2 8.2 58.5 7.7 59 7.3 C 59.5 6.8 60.1 6.5 60.9 6.3 C 61.7 6.1 62.7 6 63.8 6 H 71.2 Z" fill="#2a292f"/>
<path d="M 93.6 6 C 94.8 6 95.8 6.1 96.6 6.3 C 97.4 6.5 98 6.8 98.5 7.3 C 99 7.7 99.3 8.2 99.5 8.9 C 99.7 9.6 99.8 10.4 99.8 11.3 V 15 C 99.8 16 99.7 16.8 99.5 17.4 C 99.3 18.1 99 18.6 98.5 19.1 C 98 19.5 97.4 19.8 96.6 20 C 95.8 20.2 94.8 20.3 93.6 20.3 H 86.3 C 85.1 20.3 84.1 20.2 83.3 20 C 82.6 19.8 81.9 19.5 81.5 19.1 C 81 18.6 80.7 18.1 80.4 17.4 C 80.2 16.8 80.1 15.9 80.1 15 V 11.3 C 80.1 10.3 80.2 9.5 80.4 8.9 C 80.6 8.2 81 7.7 81.5 7.3 C 81.9 6.8 82.6 6.5 83.3 6.3 C 84.1 6.1 85.1 6 86.3 6 H 93.6 Z M 83.9 14.4 C 83.9 14.9 83.9 15.4 84 15.7 C 84.1 16.1 84.2 16.4 84.4 16.6 C 84.6 16.8 84.9 17 85.3 17.1 C 85.6 17.1 86.1 17.2 86.7 17.2 H 93.3 C 93.8 17.2 94.3 17.1 94.7 17.1 C 95 17 95.3 16.8 95.5 16.6 C 95.8 16.4 95.9 16.1 96 15.7 C 96.1 15.4 96.1 14.9 96.1 14.4 V 11.9 C 96.1 11.4 96.1 10.9 96 10.5 C 95.9 10.2 95.8 9.9 95.5 9.7 C 95.3 9.4 95 9.3 94.7 9.2 C 94.3 9.1 93.9 9.1 93.3 9.1 H 86.7 C 86.1 9.1 85.6 9.1 85.3 9.2 C 84.9 9.3 84.6 9.4 84.4 9.7 C 84.2 9.9 84.1 10.2 84 10.5 C 83.9 10.9 83.9 11.4 83.9 11.9 V 14.4 Z" fill="#2a292f"/>
<path d="M 33.5 27.7 C 33.4 27.7 33.4 27.6 33.4 27.5 V 27.2 C 33.4 27 33.3 26.8 33.2 26.7 C 33.1 26.6 33 26.6 32.8 26.6 H 31.6 C 31.3 26.6 31.1 26.6 31.1 26.7 C 31 26.8 30.9 27 30.9 27.2 V 29.6 C 30.9 29.8 31 30 31.1 30.1 C 31.2 30.2 31.3 30.2 31.6 30.2 H 32.8 C 33 30.2 33.1 30.2 33.2 30.1 C 33.3 30 33.4 29.8 33.4 29.6 V 28.9 H 32.3 C 32.2 28.9 32.1 28.8 32.1 28.8 C 32.1 28.7 32.2 28.6 32.3 28.6 H 33.6 C 33.6 28.6 33.7 28.6 33.7 28.7 C 33.7 28.7 33.7 28.7 33.7 28.8 V 29.6 C 33.7 29.9 33.6 30.1 33.5 30.3 C 33.3 30.4 33.1 30.5 32.8 30.5 H 31.5 C 31.2 30.5 30.9 30.4 30.8 30.3 C 30.6 30.1 30.5 29.9 30.5 29.6 V 27.2 C 30.5 26.9 30.6 26.6 30.8 26.5 C 30.9 26.4 31.1 26.3 31.5 26.3 H 32.8 C 33.1 26.3 33.3 26.4 33.5 26.5 C 33.6 26.7 33.7 26.9 33.7 27.2 V 27.5 C 33.7 27.6 33.7 27.7 33.6 27.7 H 33.5 Z" fill="#2a292f"/>
<path d="M 38.8 30.2 C 38.9 30.2 39 30.2 39 30.3 C 39 30.4 38.9 30.5 38.8 30.5 H 36.6 C 36.6 30.5 36.5 30.5 36.5 30.4 C 36.5 30.4 36.5 30.4 36.5 30.3 V 26.5 C 36.5 26.4 36.5 26.4 36.5 26.4 C 36.6 26.3 36.6 26.3 36.7 26.3 C 36.7 26.3 36.8 26.3 36.8 26.4 C 36.8 26.4 36.8 26.4 36.8 26.5 V 30.2 H 38.8 Z" fill="#2a292f"/>
<path d="M 42.2 30.5 C 41.8 30.5 41.6 30.4 41.4 30.3 C 41.3 30.1 41.2 29.9 41.2 29.6 V 27.2 C 41.2 26.9 41.3 26.6 41.4 26.5 C 41.6 26.4 41.8 26.3 42.2 26.3 H 43.5 C 43.9 26.3 44.1 26.4 44.3 26.5 C 44.4 26.7 44.5 26.9 44.5 27.2 V 29.6 C 44.5 29.9 44.4 30.2 44.3 30.3 C 44.1 30.4 43.9 30.5 43.5 30.5 H 42.2 Z M 42.2 30.2 H 43.5 C 43.7 30.2 43.9 30.2 44 30.1 C 44.1 30 44.1 29.8 44.1 29.6 V 27.2 C 44.1 27 44.1 26.8 44 26.7 C 43.9 26.6 43.7 26.6 43.5 26.6 H 42.2 C 42 26.6 41.8 26.6 41.7 26.7 C 41.6 26.8 41.6 27 41.6 27.2 V 29.6 C 41.6 29.8 41.6 30 41.7 30.1 C 41.8 30.2 42 30.2 42.2 30.2 Z" fill="#2a292f"/>
<path d="M 49.5 28.4 C 49.9 28.4 50.1 28.7 50.1 29.2 V 29.6 C 50.1 29.9 50 30.1 49.9 30.3 C 49.7 30.4 49.5 30.5 49.2 30.5 H 47.4 C 47.4 30.5 47.3 30.5 47.3 30.5 C 47.3 30.4 47.3 30.4 47.3 30.3 V 26.5 C 47.3 26.4 47.3 26.4 47.3 26.3 C 47.3 26.3 47.4 26.3 47.4 26.3 H 49.1 C 49.4 26.3 49.6 26.4 49.7 26.5 C 49.9 26.7 50 26.9 50 27.2 V 27.6 C 50 28 49.8 28.2 49.5 28.4 Z M 49.6 27.2 C 49.6 27 49.6 26.8 49.5 26.7 C 49.4 26.6 49.2 26.6 49 26.6 H 47.6 V 28.2 H 49 C 49.2 28.2 49.4 28.2 49.5 28.1 C 49.6 28 49.6 27.8 49.6 27.6 V 27.2 Z M 49.8 29.6 V 29.1 C 49.8 28.9 49.7 28.8 49.6 28.7 C 49.5 28.6 49.4 28.5 49.2 28.5 H 47.6 V 30.2 H 49.1 C 49.3 30.2 49.5 30.2 49.6 30.1 C 49.7 30 49.8 29.8 49.8 29.6 Z" fill="#2a292f"/>
<path d="M 56.1 30.2 C 56.1 30.3 56.1 30.4 56.1 30.4 C 56 30.5 56 30.5 55.9 30.5 C 55.9 30.5 55.8 30.4 55.7 30.4 L 55.2 29 H 53.2 L 52.6 30.3 C 52.6 30.4 52.6 30.4 52.6 30.4 C 52.6 30.5 52.5 30.5 52.5 30.5 C 52.4 30.5 52.4 30.4 52.3 30.4 C 52.3 30.3 52.3 30.3 52.3 30.2 L 53.9 26.5 C 54 26.3 54.1 26.3 54.2 26.3 C 54.3 26.3 54.4 26.3 54.4 26.5 L 56.1 30.2 Z M 53.3 28.8 H 55.1 L 54.2 26.6 L 53.3 28.8 Z" fill="#2a292f"/>
<path d="M 60.9 30.2 C 61 30.2 61 30.2 61 30.3 C 61 30.4 61 30.5 60.9 30.5 H 58.7 C 58.6 30.5 58.6 30.5 58.6 30.4 C 58.5 30.4 58.5 30.4 58.5 30.3 V 26.5 C 58.5 26.4 58.6 26.4 58.6 26.4 C 58.6 26.3 58.7 26.3 58.7 26.3 C 58.8 26.3 58.8 26.3 58.8 26.4 C 58.9 26.4 58.9 26.4 58.9 26.5 V 30.2 H 60.9 Z" fill="#2a292f"/>
<path d="M 67.3 30.5 C 67 30.5 66.8 30.4 66.6 30.3 C 66.5 30.1 66.4 29.9 66.4 29.6 V 27.2 C 66.4 26.9 66.5 26.6 66.6 26.5 C 66.8 26.4 67 26.3 67.3 26.3 H 68.3 C 68.7 26.3 68.9 26.4 69.1 26.5 C 69.2 26.7 69.3 26.9 69.3 27.2 V 27.5 C 69.3 27.6 69.3 27.7 69.2 27.7 H 69.1 C 69 27.7 69 27.6 69 27.5 V 27.2 C 69 26.9 68.9 26.8 68.8 26.7 C 68.7 26.6 68.5 26.5 68.3 26.5 H 67.4 C 67.1 26.5 67 26.6 66.9 26.7 C 66.8 26.8 66.7 26.9 66.7 27.2 V 29.6 C 66.7 29.8 66.8 30 66.9 30.1 C 67 30.2 67.1 30.2 67.4 30.2 H 68.3 C 68.5 30.2 68.7 30.2 68.8 30.1 C 68.9 30 69 29.8 69 29.6 V 29.3 C 69 29.2 69 29.1 69.1 29.1 H 69.2 C 69.3 29.1 69.3 29.2 69.3 29.3 V 29.6 C 69.3 29.9 69.2 30.1 69.1 30.3 C 68.9 30.4 68.7 30.5 68.3 30.5 H 67.3 V 30.5 Z" fill="#2a292f"/>
<path d="M 75.2 30.2 C 75.2 30.3 75.2 30.4 75.2 30.4 C 75.1 30.5 75.1 30.5 75 30.5 C 75 30.5 74.9 30.4 74.9 30.4 L 74.3 29 H 72.3 L 71.7 30.4 C 71.7 30.4 71.7 30.4 71.7 30.5 C 71.7 30.5 71.6 30.5 71.6 30.5 C 71.5 30.5 71.5 30.5 71.4 30.4 C 71.4 30.4 71.4 30.3 71.4 30.2 L 73.1 26.5 C 73.1 26.3 73.2 26.3 73.3 26.3 C 73.4 26.3 73.5 26.3 73.5 26.5 L 75.2 30.2 Z M 72.4 28.8 H 74.2 L 73.3 26.6 L 72.4 28.8 Z" fill="#2a292f"/>
<path d="M 79.3 26.3 C 79.6 26.3 79.8 26.4 80 26.5 C 80.1 26.7 80.2 26.9 80.2 27.2 V 28 C 80.2 28.3 80.1 28.5 80 28.7 C 79.8 28.8 79.6 28.9 79.3 28.9 H 78 V 30.3 C 78 30.4 77.9 30.5 77.8 30.5 C 77.7 30.5 77.6 30.4 77.6 30.3 V 26.5 C 77.6 26.4 77.6 26.4 77.6 26.3 C 77.7 26.3 77.7 26.3 77.8 26.3 H 79.3 Z M 79.8 28 V 27.2 C 79.8 26.8 79.6 26.6 79.2 26.6 H 78 V 28.6 H 79.2 C 79.4 28.6 79.6 28.5 79.7 28.4 C 79.8 28.4 79.8 28.2 79.8 28 Z" fill="#2a292f"/>
<path d="M 83.1 30.5 C 83 30.5 82.9 30.4 82.9 30.3 V 26.5 C 82.9 26.4 83 26.3 83.1 26.3 C 83.2 26.3 83.3 26.4 83.3 26.5 V 30.3 C 83.3 30.4 83.2 30.5 83.1 30.5 Z" fill="#2a292f"/>
<path d="M 89.1 26.3 C 89.2 26.3 89.3 26.4 89.3 26.5 C 89.3 26.6 89.2 26.6 89.1 26.6 H 87.7 V 30.3 C 87.7 30.4 87.6 30.5 87.5 30.5 C 87.4 30.5 87.3 30.4 87.3 30.3 V 26.6 H 85.9 C 85.8 26.6 85.7 26.6 85.7 26.5 C 85.7 26.4 85.8 26.3 85.9 26.3 H 89.1 Z" fill="#2a292f"/>
<path d="M 94.6 30.2 C 94.6 30.3 94.6 30.4 94.6 30.4 C 94.6 30.5 94.5 30.5 94.5 30.5 C 94.4 30.5 94.3 30.4 94.3 30.4 L 93.7 29 H 91.7 L 91.2 30.4 C 91.1 30.4 91.1 30.4 91.1 30.5 C 91.1 30.5 91.1 30.5 91 30.5 C 90.9 30.5 90.9 30.5 90.9 30.4 C 90.8 30.4 90.8 30.3 90.9 30.2 L 92.5 26.5 C 92.5 26.3 92.6 26.3 92.7 26.3 C 92.8 26.3 92.9 26.3 92.9 26.5 L 94.6 30.2 Z M 91.8 28.8 H 93.6 L 92.7 26.6 L 91.8 28.8 Z" fill="#2a292f"/>
<path d="M 99.4 30.2 C 99.5 30.2 99.6 30.2 99.6 30.3 C 99.6 30.4 99.5 30.5 99.4 30.5 H 97.2 C 97.2 30.5 97.1 30.5 97.1 30.4 C 97.1 30.4 97.1 30.4 97.1 30.3 V 26.5 C 97.1 26.4 97.1 26.4 97.1 26.4 C 97.2 26.3 97.2 26.3 97.3 26.3 C 97.3 26.3 97.4 26.3 97.4 26.4 C 97.4 26.4 97.4 26.4 97.4 26.5 V 30.2 H 99.4 Z" fill="#2a292f"/>
</g>
<defs>
<clipPath id="clip0_1242_1823">
<rect width="100" height="25.8" fill="#2a292f" transform="translate(0,5)"/>
</clipPath>
</defs>
</svg>
