<svg id="img" width="178" height="36" viewBox="0 0 178 36" fill="none" xmlns="http://www.w3.org/2000/svg">
<path d="M 14.6 20.3 C 14.6 20.2 14.7 20.1 14.8 19.9 C 17.1 17.7 19.4 15.4 21.7 13.1 C 22.3 12.5 22.6 12.5 23.2 13.1 C 25.5 15.4 27.8 17.7 30 19.9 C 30.2 20.1 30.3 20.2 30.4 20.4 C 30.5 20.1 30.5 19.9 30.5 19.8 C 30.5 14.9 30.5 10.1 30.5 5.3 C 30.5 5.1 30.5 5 30.5 4.9 C 30.5 4.5 30.6 4.1 31 4 C 31.5 3.9 31.8 4.2 31.9 4.5 C 32.8 6.1 33.6 7.8 34.4 9.4 C 36.4 13.4 38.5 17.5 40.5 21.5 C 40.9 22.3 40.8 22.6 40.1 22.9 C 34.4 25.7 28.7 28.5 23.1 31.3 C 22.6 31.6 22.3 31.6 21.9 31.4 C 16.1 28.5 10.4 25.7 4.7 22.9 C 4.1 22.6 4 22.2 4.3 21.6 C 7.2 15.9 10 10.3 12.9 4.6 C 13.1 4.1 13.5 3.9 13.8 4 C 14.3 4.2 14.4 4.5 14.4 4.9 C 14.4 9.9 14.4 14.8 14.4 19.8 V 20.2 L 14.6 20.3 Z M 26.4 28 C 26.6 28 26.7 27.9 26.9 27.8 C 30 26.2 33.2 24.7 36.4 23.1 C 36.5 23 36.6 23 36.7 22.9 C 35 22.9 33.4 22.9 31.8 22.9 C 31.7 22.9 31.6 22.9 31.6 22.9 C 31.5 22.9 31.4 22.9 31.4 23 C 29.7 24.6 28.1 26.3 26.4 28 C 26.4 28 26.4 28 26.4 28 C 26.4 28 26.4 28 26.4 28 L 26.4 28 Z M 18.5 28 L 18.5 28 C 18.5 28 18.5 28 18.5 28 C 18.5 28 18.5 28 18.5 28 C 18.4 27.9 18.4 27.9 18.4 27.8 C 16.8 26.2 15.2 24.6 13.5 23 C 13.5 23 13.4 22.9 13.3 22.9 C 13.2 22.9 13.1 22.8 13 22.9 C 11.9 22.9 10.8 22.9 9.6 22.9 H 8 C 8.2 23 8.3 23 8.3 23 L 18.1 27.9 C 18.2 27.9 18.3 28 18.5 28 L 18.5 28 Z M 23.2 28.9 C 23.3 28.9 23.4 28.8 23.4 28.8 C 25.6 26.6 27.8 24.5 30 22.4 C 30.2 22.1 30.1 22 29.9 21.9 C 27.8 19.7 25.6 17.6 23.4 15.5 C 23.4 15.4 23.3 15.3 23.2 15.3 V 28.9 Z M 21.7 28.9 V 15.3 C 21.6 15.4 21.5 15.4 21.4 15.5 C 19.3 17.6 17.1 19.7 15 21.9 C 14.7 22.1 14.8 22.2 15 22.4 C 17.1 24.5 19.2 26.6 21.4 28.7 C 21.4 28.8 21.5 28.9 21.7 28.9 L 21.7 28.9 Z M 12.9 8 L 12.8 8 L 11.5 10.7 C 9.7 14.1 8 17.5 6.3 20.9 C 6.2 21.1 5.9 21.4 6.4 21.4 C 8.5 21.4 10.5 21.4 12.6 21.4 C 12.8 21.4 12.9 21.3 12.9 21.1 C 12.9 16.7 12.9 12.4 12.9 8 Z M 32 8 C 32 8.2 32 8.2 32 8.3 C 32 12.5 32 16.8 32 21 C 32 21.3 32.1 21.4 32.4 21.4 C 34.3 21.4 36.3 21.4 38.2 21.4 C 38.8 21.4 38.8 21.4 38.6 20.9 C 36.5 16.7 34.4 12.6 32.3 8.5 C 32.2 8.4 32.2 8.2 32 8 Z" fill="#2a292f"/>
<path d="M 130.6 19.9 C 130.8 19.8 130.9 19.6 130.9 19.5 C 132.1 16.9 133.3 14.4 134.5 11.8 C 134.6 11.6 134.7 11.4 134.9 11.4 C 135.3 11.2 135.5 11.4 135.6 11.8 C 136.2 15.3 136.8 18.7 137.5 22.2 C 137.5 22.6 137.6 23 137.7 23.4 C 137.8 23.9 137.7 24 137.2 24 C 136.8 24 136.4 24 136 24 C 135.6 24 135.4 23.9 135.4 23.5 C 135 21.5 134.7 19.4 134.4 17.4 C 134.4 17.3 134.4 17.2 134.3 17.1 C 134.1 17.2 134.1 17.4 134.1 17.5 C 133.1 19.6 132.2 21.7 131.2 23.8 C 131.1 24 131 24.2 130.7 24.2 C 130.3 24.2 130.2 24 130.1 23.8 C 129.1 21.7 128.2 19.6 127.3 17.5 C 127.2 17.4 127.1 17.2 127 17.1 C 126.9 17.5 126.8 18 126.7 18.5 C 126.5 20.1 126.2 21.8 126 23.4 C 125.9 23.9 125.7 24.1 125.3 24 C 124.9 24 124.5 24 124.1 24 C 123.7 24 123.6 23.9 123.7 23.4 C 123.9 21.9 124.2 20.3 124.5 18.8 C 124.9 16.5 125.3 14.2 125.7 11.9 C 125.8 11.6 125.8 11.4 126.1 11.3 C 126.5 11.3 126.7 11.4 126.8 11.8 C 128 14.3 129.2 16.9 130.4 19.4 C 130.5 19.6 130.6 19.7 130.6 19.9 Z" fill="#2a292f"/>
<path d="M 58 18.8 C 58.3 17.6 58.6 16.4 58.9 15.1 C 59.2 14.1 59.5 13 59.7 12 C 59.8 11.6 60 11.5 60.4 11.5 C 60.8 11.5 61.2 11.5 61.6 11.5 C 62.1 11.5 62.2 11.7 62.1 12.2 C 61.6 13.9 61.1 15.7 60.6 17.4 C 60 19.5 59.4 21.6 58.8 23.7 C 58.7 24 58.6 24.2 58.3 24.2 C 57.9 24.2 57.8 24 57.7 23.8 C 56.7 21.3 55.7 18.8 54.7 16.3 C 54.6 16.2 54.6 16.1 54.5 16 C 54.4 16.1 54.4 16.2 54.3 16.3 C 53.3 18.8 52.4 21.3 51.4 23.7 C 51.3 23.9 51.3 24.2 51 24.2 C 50.6 24.2 50.4 24.1 50.3 23.7 C 49.6 21.2 48.9 18.8 48.2 16.3 C 47.8 15 47.4 13.6 47 12.3 C 46.8 11.6 46.9 11.5 47.7 11.5 C 48 11.5 48.3 11.5 48.7 11.5 C 49.1 11.5 49.3 11.7 49.3 12 C 49.9 14.1 50.4 16.2 51 18.3 C 51 18.5 51 18.7 51.2 18.9 C 51.7 17.7 52.1 16.5 52.6 15.3 C 53 14.2 53.5 13 53.9 11.9 C 54 11.6 54.1 11.3 54.6 11.3 C 55 11.3 55 11.6 55.1 11.9 C 56 14.1 56.9 16.2 57.7 18.4 C 57.8 18.6 57.8 18.7 57.9 18.8 L 58 18.8 Z" fill="#2a292f"/>
<path d="M 81 19.1 C 81.2 19 81.1 18.8 81.1 18.6 C 81.1 16.5 81.1 14.3 81.1 12.2 C 81.1 11.6 81.2 11.5 81.8 11.5 C 82.1 11.5 82.5 11.5 82.9 11.5 C 83.4 11.5 83.5 11.6 83.5 12.2 C 83.5 15.5 83.5 18.8 83.5 22.1 V 23.6 C 83.5 23.8 83.5 24.1 83.2 24.2 C 83 24.3 82.7 24.2 82.5 24 C 80.6 21.9 78.7 19.8 76.7 17.7 C 76.3 17.2 75.8 16.7 75.2 16.1 C 75.1 16.3 75.2 16.5 75.2 16.6 C 75.2 18.9 75.2 21.1 75.2 23.4 C 75.2 24 75.1 24 74.5 24 H 73.5 C 72.9 24 72.8 24 72.8 23.4 C 72.8 20.5 72.8 17.6 72.8 14.8 C 72.8 13.8 72.8 12.9 72.8 12 C 72.8 11.8 72.8 11.5 73.1 11.4 C 73.2 11.3 73.4 11.3 73.5 11.4 C 73.6 11.4 73.8 11.5 73.9 11.6 C 75.8 13.7 77.8 15.7 79.7 17.8 C 80.2 18.2 80.6 18.7 81 19.1 Z" fill="#2a292f"/>
<path d="M 114.1 11.5 C 115 11.5 116 11.5 116.9 11.6 C 117.7 11.6 118.5 12 119.2 12.6 C 119.8 13.1 120.2 13.9 120.4 14.7 C 120.6 16.3 119.8 17.9 118.2 18.7 C 117.8 18.9 117.8 19.1 118 19.4 C 118.7 20.7 119.4 22 120.1 23.2 C 120.4 23.8 120.3 24 119.6 24 C 119.2 24 118.7 24 118.2 24 C 117.9 24 117.7 23.9 117.6 23.6 C 116.9 22.2 116.2 20.9 115.5 19.5 C 115.4 19.2 115.2 19.1 114.9 19.1 C 114.5 19.2 114.1 19.2 113.8 19.1 C 113.4 19.1 113.3 19.2 113.3 19.6 C 113.3 20.9 113.3 22.2 113.3 23.4 C 113.3 23.9 113.2 24 112.8 24 C 112.4 24 112 24 111.6 24 C 111 24 111 24 111 23.4 C 111 19.8 111 16.2 111 12.7 C 111 12.4 111 12.2 111 12 C 111 11.7 111.1 11.5 111.5 11.5 C 112.4 11.5 113.2 11.5 114.1 11.5 L 114.1 11.5 Z M 113.3 15.4 C 113.3 15.9 113.4 16.4 113.3 16.9 C 113.3 17.1 113.4 17.2 113.6 17.2 C 114.5 17.2 115.4 17.2 116.3 17.2 C 116.8 17.2 117.2 17 117.6 16.7 C 117.9 16.3 118.1 15.9 118.1 15.4 C 118.1 15 117.9 14.5 117.6 14.2 C 117.2 13.9 116.8 13.7 116.3 13.7 C 115.4 13.7 114.5 13.7 113.6 13.7 C 113.4 13.7 113.3 13.7 113.3 14 C 113.4 14.4 113.3 14.9 113.3 15.4 Z" fill="#2a292f"/>
<path d="M 151.5 16.1 C 151.4 17.2 151.6 18.6 151.4 20.1 C 151 22.6 148.7 24.4 146.1 24.2 C 143.5 24 141.4 22 141.4 19.4 C 141.4 17 141.4 14.5 141.4 12.1 C 141.4 11.7 141.6 11.5 142 11.5 C 142.4 11.5 142.8 11.5 143.1 11.5 C 143.8 11.5 143.8 11.6 143.8 12.2 C 143.8 14.4 143.8 16.6 143.8 18.8 C 143.8 19 143.8 19.2 143.8 19.5 C 144 21 145.1 21.9 146.6 21.9 C 148 21.8 149 20.7 149 19.2 C 149.1 16.9 149 14.6 149 12.3 C 149 11.6 149.1 11.5 149.8 11.5 C 150.2 11.5 150.6 11.5 150.9 11.5 C 151.3 11.5 151.5 11.7 151.5 12.1 C 151.5 13.3 151.5 14.6 151.5 16.1 Z" fill="#2a292f"/>
<path d="M 98.8 17.8 C 98.8 15.9 98.8 14 98.8 12.1 C 98.8 11.6 98.8 11.5 99.4 11.5 C 101.6 11.5 103.9 11.5 106.2 11.5 C 106.7 11.5 106.8 11.6 106.8 12.1 C 106.8 12.4 106.8 12.7 106.8 13 C 106.8 13.7 106.7 13.7 106.1 13.7 C 104.6 13.7 103.1 13.7 101.5 13.7 C 101.2 13.7 101.1 13.7 101.1 14.1 C 101.1 14.8 101.1 15.5 101.1 16.2 C 101.1 16.5 101.2 16.6 101.5 16.6 C 102.8 16.6 104 16.6 105.3 16.6 C 105.8 16.6 105.9 16.7 105.9 17.2 C 105.9 17.5 105.9 17.9 105.9 18.2 C 105.9 18.6 105.8 18.8 105.4 18.8 C 104.1 18.7 102.8 18.8 101.5 18.8 C 101.2 18.8 101.1 18.8 101.1 19.1 C 101.1 19.9 101.1 20.7 101.1 21.5 C 101.1 21.8 101.2 21.9 101.5 21.9 C 103 21.9 104.6 21.9 106.1 21.9 C 106.7 21.9 106.8 21.9 106.8 22.5 C 106.8 22.8 106.8 23.1 106.8 23.4 C 106.8 24 106.7 24 106.1 24 H 99.4 C 98.8 24 98.8 24 98.8 23.3 C 98.8 21.5 98.8 19.6 98.8 17.8 Z" fill="#2a292f"/>
<path d="M 166.6 17.8 C 166.6 15.9 166.6 14 166.6 12.1 C 166.6 11.6 166.7 11.5 167.3 11.5 C 169.5 11.5 171.8 11.5 174 11.5 C 174.6 11.5 174.7 11.6 174.7 12.1 C 174.7 12.5 174.7 12.8 174.7 13.1 C 174.7 13.5 174.5 13.7 174.1 13.7 C 172.6 13.7 171 13.7 169.4 13.7 C 169.1 13.7 169 13.7 169 14.1 C 169 14.8 169 15.5 169 16.2 C 169 16.5 169.1 16.6 169.4 16.6 C 170.7 16.6 171.9 16.6 173.2 16.6 C 173.6 16.6 173.8 16.7 173.8 17.2 C 173.8 17.5 173.8 17.9 173.8 18.2 C 173.8 18.6 173.6 18.8 173.3 18.8 C 172 18.7 170.7 18.8 169.4 18.8 C 169.1 18.8 169 18.8 169 19.2 C 169 20 169 20.7 169 21.5 C 169 21.8 169.1 21.9 169.3 21.9 C 170.9 21.9 172.5 21.9 174 21.9 C 174.6 21.9 174.7 21.9 174.7 22.5 C 174.7 22.8 174.7 23.2 174.7 23.6 C 174.7 23.9 174.5 24 174.2 24 C 171.8 24 169.5 24 167.1 24 C 166.7 24 166.6 23.8 166.6 23.5 C 166.6 21.6 166.6 19.7 166.6 17.8 Z" fill="#2a292f"/>
<path d="M 157.8 18.8 C 157.8 17.2 157.8 15.7 157.8 14.1 C 157.8 13.7 157.7 13.7 157.4 13.7 C 156.7 13.7 156 13.7 155.2 13.7 C 154.9 13.7 154.7 13.5 154.7 13.1 C 154.7 12.8 154.7 12.4 154.7 12 C 154.7 11.7 154.9 11.5 155.2 11.5 C 157.7 11.5 160.3 11.5 162.8 11.5 C 163.1 11.5 163.3 11.7 163.3 12 C 163.3 12.4 163.3 12.8 163.3 13.2 C 163.3 13.6 163.1 13.7 162.8 13.7 C 162.1 13.7 161.3 13.7 160.6 13.7 C 160.3 13.7 160.2 13.8 160.2 14.1 C 160.2 17.2 160.2 20.3 160.2 23.3 C 160.2 24 160.1 24 159.5 24 C 159.1 24 158.8 24 158.4 24 C 158 24 157.8 23.9 157.8 23.4 C 157.8 21.9 157.8 20.3 157.8 18.8 Z" fill="#2a292f"/>
<path d="M 92.3 18.8 C 92.3 20.3 92.3 21.9 92.3 23.4 C 92.3 24 92.2 24 91.7 24 H 90.6 C 90 24 89.9 24 89.9 23.4 C 89.9 20.3 89.9 17.3 89.9 14.2 C 89.9 13.7 89.8 13.6 89.4 13.7 C 88.7 13.7 88 13.7 87.3 13.7 C 87 13.7 86.8 13.5 86.8 13.2 C 86.9 12.8 86.9 12.4 86.8 12 C 86.8 11.7 87 11.5 87.3 11.5 C 89.9 11.5 92.4 11.5 94.9 11.5 C 95.3 11.5 95.4 11.7 95.4 12 C 95.4 12.4 95.4 12.8 95.4 13.2 C 95.4 13.5 95.3 13.7 94.9 13.7 C 94.2 13.7 93.5 13.7 92.8 13.7 C 92.4 13.6 92.3 13.8 92.3 14.2 C 92.3 15.7 92.3 17.2 92.3 18.8 Z" fill="#2a292f"/>
<path d="M 68 17.7 C 68 19.6 68 21.5 68 23.4 C 68 23.9 68 24 67.4 24 C 67 24 66.6 24 66.3 24 C 65.7 24 65.7 23.9 65.7 23.4 C 65.7 21.2 65.7 19 65.7 16.8 C 65.7 15.3 65.7 13.7 65.7 12.1 C 65.7 11.6 65.7 11.5 66.3 11.5 C 66.7 11.5 67 11.5 67.4 11.5 C 68 11.5 68 11.6 68 12.1 C 68.1 14 68.1 15.9 68 17.7 Z" fill="#2a292f"/>
</svg>
