<?xml version="1.0" encoding="UTF-8"?><svg id="Layer_2" xmlns="http://www.w3.org/2000/svg" viewBox="0 0 480 352"><defs><style>.cls-1{fill:#1b1b1e;}</style></defs><g id="Layer_1-2"><polygon class="cls-1" points="448 0 448 96 416 96 416 0 384 0 384 96 352 96 352 0 320 0 320 96 160 96 160 0 128 0 128 96 128 128 448 128 448 160 416 160 384 160 96 160 96 0 64 0 64 160 32 160 32 0 0 0 0 160 0 192 0 352 32 352 32 256 64 256 64 352 96 352 96 256 128 256 128 352 160 352 160 256 320 256 320 352 352 352 352 256 352 224 96 224 64 224 32 224 32 192 64 192 96 192 384 192 384 352 416 352 416 192 448 192 448 352 480 352 480 192 480 160 480 128 480 96 480 0 448 0"/></g></svg>
