<svg width="48" height="48" viewBox="0 0 48 48" fill="none" xmlns="http://www.w3.org/2000/svg">
<rect width="48" height="48" rx="24" fill="#0040FF"/>
<path d="M17.4018 19.773C19.7059 19.773 21.5486 21.6518 21.5486 23.9996C21.5486 26.3482 19.7059 28.2262 17.4018 28.2262C15.0976 28.2262 13.255 26.3482 13.255 23.9996C13.255 21.6518 15.0976 19.773 17.4018 19.773ZM17.4018 30.9565C21.1743 30.9565 24.227 27.8445 24.227 23.9996C24.227 20.1547 21.1743 17.0435 17.4018 17.0435C13.6293 17.0435 10.5765 20.1547 10.5765 23.9996C10.5765 27.8445 13.6293 30.9565 17.4018 30.9565ZM26.9573 17.0435C26.7064 17.0435 26.5024 17.2508 26.5024 17.5075V19.3625C26.5024 19.6183 26.7064 19.8256 26.9573 19.8256H34.2383C34.4892 19.8256 34.6932 19.6183 34.6932 19.3625V17.5075C34.6932 17.2508 34.4892 17.0435 34.2383 17.0435H26.9573ZM35.1481 19.8256C34.8964 19.8256 34.6932 20.0338 34.6932 20.2896V22.1471C34.6932 22.4037 34.8964 22.611 35.1481 22.611H36.9685C37.2194 22.611 37.4234 22.4037 37.4234 22.1471V20.2896C37.4234 20.0338 37.2194 19.8256 36.9685 19.8256H35.1481ZM26.9573 25.3915C26.7064 25.3915 26.5024 25.5988 26.5024 25.8546V27.7096C26.5024 27.9662 26.7064 28.1735 26.9573 28.1735H28.7777C29.0286 28.1735 29.2327 27.9662 29.2327 27.7096V25.8546C29.2327 25.5988 29.0286 25.3915 28.7777 25.3915H26.9573ZM30.5974 23.0725C30.5974 22.8158 30.8014 22.6085 31.0531 22.6085H32.8727C33.1245 22.6085 33.3276 22.8158 33.3276 23.0725V24.9275C33.3276 25.1833 33.1245 25.3915 32.8727 25.3915H31.0531C30.8014 25.3915 30.5974 25.1833 30.5974 24.9275V23.0725ZM29.6876 28.1735C29.4367 28.1735 29.2327 28.3817 29.2327 28.6375V30.4925C29.2327 30.7483 29.4367 30.9565 29.6876 30.9565H36.9685C37.2194 30.9565 37.4234 30.7483 37.4234 30.4925V28.6375C37.4234 28.3817 37.2194 28.1735 36.9685 28.1735H29.6876Z" fill="white"/>
</svg>
