<svg id="img" width="32" height="32" viewBox="0 0 32 32" fill="none" xmlns="http://www.w3.org/2000/svg">
<g clip-path="url(#clip0_242_6871)">
<g clip-path="url(#clip1_242_6871)">
<path d="M22.6078 19.5472C21.3398 21.8934 18.8567 23.4914 16.0084 23.4914C11.875 23.4914 8.51229 20.1284 8.51229 15.9953C8.51229 11.8622 11.8748 8.49917 16.0084 8.49917C18.8567 8.49917 21.34 10.0971 22.608 12.4435L26.3313 10.4401C24.3509 6.76961 20.4711 4.27497 16.0084 4.27497C9.53543 4.27497 4.28809 9.52232 4.28809 15.9953C4.28809 22.4682 9.53526 27.7156 16.0084 27.7156C20.4713 27.7156 24.3511 25.221 26.3307 21.5505L22.6078 19.5472Z" fill="white"/>
<path d="M0 15.9999C0 7.16324 7.17207 -0.000244141 16.0087 -0.000244141V32C7.17207 32 0 24.8365 0 15.9999Z" fill="#617DEA"/>
<path fill-rule="evenodd" clip-rule="evenodd" d="M16.0088 23.4914V27.7156C16.0087 27.7156 16.0085 27.7156 16.0084 27.7156C9.53526 27.7156 4.28809 22.4682 4.28809 15.9953C4.28809 9.52232 9.53543 4.27497 16.0084 4.27497C16.0085 4.27497 16.0087 4.27497 16.0088 4.27497V8.49917C16.0087 8.49917 16.0085 8.49917 16.0084 8.49917C11.8748 8.49917 8.51229 11.8622 8.51229 15.9953C8.51229 20.1284 11.875 23.4914 16.0084 23.4914C16.0085 23.4914 16.0087 23.4914 16.0088 23.4914Z" fill="#2A292F"/>
</g>
</g>
<defs>
<clipPath id="clip0_242_6871">
<rect width="32" height="32" fill="white"/>
</clipPath>
<clipPath id="clip1_242_6871">
<rect width="32" height="32" fill="white"/>
</clipPath>
</defs>
</svg>