<svg width="48" height="48" viewBox="0 0 48 48" fill="none" xmlns="http://www.w3.org/2000/svg">
<rect width="48" height="48" rx="24" fill="#2775CA"/>
<path d="M30.5991 27.7992C30.5991 24.2993 28.4991 23.0993 24.2991 22.5994C21.2991 22.1993 20.6991 21.3994 20.6991 19.9992C20.6991 18.5991 21.6992 17.6993 23.6991 17.6993C25.4991 17.6993 26.4992 18.2993 26.9991 19.7993C27.0992 20.0993 27.3992 20.2992 27.6992 20.2992H29.2991C29.6991 20.2992 29.9991 19.9992 29.9991 19.5994V19.4993C29.5991 17.2992 27.7991 15.5993 25.4991 15.3994V12.9994C25.4991 12.5993 25.1991 12.2993 24.6992 12.1992H23.1992C22.7991 12.1992 22.4991 12.4992 22.3991 12.9994V15.2993C19.3991 15.6994 17.4992 17.6993 17.4992 20.1994C17.4992 23.4994 19.4991 24.7992 23.6991 25.2994C26.4992 25.7993 27.3992 26.3993 27.3992 27.9994C27.3992 29.5995 25.9991 30.6994 24.0992 30.6994C21.4991 30.6994 20.5991 29.5992 20.2991 28.0992C20.1992 27.6994 19.8992 27.4992 19.5992 27.4992H17.8991C17.4992 27.4992 17.1992 27.7992 17.1992 28.1993V28.2994C17.5991 30.7992 19.1991 32.5992 22.4991 33.0994V35.4994C22.4991 35.8992 22.7991 36.1992 23.2991 36.2993H24.7991C25.1991 36.2993 25.4991 35.9993 25.5992 35.4994V33.0994C28.5992 32.5992 30.5991 30.4992 30.5991 27.7992Z" fill="white"/>
<path d="M18.9 38.3003C11.1 35.5005 7.09992 26.8005 10.0001 19.1003C11.5001 14.9003 14.8001 11.7004 18.9 10.2004C19.3001 10.0005 19.5 9.70049 19.5 9.20033V7.80041C19.5 7.40033 19.3001 7.10033 18.9 7.00049C18.7999 7.00049 18.6 7.00049 18.4999 7.10033C9 10.1003 3.79992 20.2005 6.79992 29.7004C8.59992 35.3003 12.9 39.6004 18.4999 41.4004C18.9 41.6003 19.3001 41.4004 19.3999 41.0003C19.5 40.9005 19.5 40.8004 19.5 40.6005V39.2003C19.5 38.9003 19.2 38.5005 18.9 38.3003ZM29.5001 7.10033C29.1 6.90041 28.6999 7.10033 28.6001 7.50041C28.5 7.60049 28.5 7.70033 28.5 7.90049V9.30041C28.5 9.70049 28.8 10.1003 29.1 10.3005C36.9 13.1003 40.9001 21.8003 37.9999 29.5005C36.4999 33.7005 33.1999 36.9004 29.1 38.4004C28.6999 38.6003 28.5 38.9003 28.5 39.4005V40.8004C28.5 41.2005 28.6999 41.5005 29.1 41.6003C29.2001 41.6003 29.4 41.6003 29.5001 41.5005C39 38.5005 44.2001 28.4003 41.2001 18.9004C39.4001 13.2004 34.9999 8.90033 29.5001 7.10033Z" fill="white"/>
</svg>
