<svg width="48" height="48" viewBox="0 0 48 48" fill="none" xmlns="http://www.w3.org/2000/svg">
<rect width="48" height="48" rx="24" fill="#53AE94"/>
<path d="M26.962 20.8022V17.232H35.1263V11.7922H12.8946V17.232H21.0599V20.7994C14.4239 21.1042 9.43433 22.4184 9.43433 23.9928C9.43433 25.5672 14.4263 26.8814 21.0599 27.1882V38.6242H26.9639V27.1872C33.5879 26.8814 38.5674 25.5682 38.5674 23.9952C38.5674 22.4222 33.5879 21.109 26.9639 20.8032M26.9639 26.2186V26.2157C26.7974 26.2262 25.9415 26.2776 24.0359 26.2776C22.5124 26.2776 21.4406 26.2344 21.0628 26.2147V26.2195C15.2001 25.9598 10.8239 24.9389 10.8239 23.7173C10.8239 22.4957 15.2006 21.4762 21.0628 21.216V25.2024C21.4468 25.2288 22.545 25.2936 24.0609 25.2936C25.8815 25.2936 26.7969 25.2178 26.9649 25.2024V21.216C32.8161 21.4766 37.1822 22.4986 37.1822 23.7158C37.1822 24.9331 32.8142 25.9555 26.9649 26.2162" fill="white"/>
</svg>
