<svg id="img" width="48" height="48" viewBox="0 0 48 48" fill="none" xmlns="http://www.w3.org/2000/svg">
<path d="M23.9907 47.969C37.2337 47.969 47.9692 37.2335 47.9692 23.9905C47.9692 10.7476 37.2337 0.012044 23.9907 0.012044C10.7477 0.012044 0.012207 10.7476 0.012207 23.9905C0.012207 37.2335 10.7477 47.969 23.9907 47.969Z" fill="#E62058"/>
<path d="M30.3958 21.926L19.0142 21.9174C15.9115 21.9174 13.3308 24.3708 13.2499 27.5252C13.2474 27.6095 13.317 27.6791 13.4013 27.6791L24.7829 27.686V27.6877C27.8856 27.6877 30.4663 25.2344 30.5472 22.08C30.5497 21.9957 30.4801 21.926 30.3958 21.926Z" fill="white"/>
<path d="M36.1644 13.286L19.0151 13.2774C15.9123 13.2774 13.3317 15.7307 13.2508 18.8852C13.2482 18.9695 13.3179 19.0391 13.4022 19.0391L30.5514 19.046V19.0477C33.6542 19.0477 36.2349 16.5944 36.3158 13.44C36.3183 13.3557 36.2487 13.286 36.1644 13.286Z" fill="white"/>
<path d="M16.1342 36.289C17.7271 36.289 19.0185 34.9977 19.0185 33.4047C19.0185 31.8118 17.7271 30.5204 16.1342 30.5204C14.5412 30.5204 13.2499 31.8118 13.2499 33.4047C13.2499 34.9977 14.5412 36.289 16.1342 36.289Z" fill="white"/>
</svg>

