<svg id="img" width="48" height="48" viewBox="0 0 48 48" fill="none" xmlns="http://www.w3.org/2000/svg">
<rect width="48" height="48" rx="24" fill="#1E1E1E"/>
<path d="M23.9952 40L23.9973 34.5549C23.4454 34.5549 22.8891 34.5112 22.3446 34.4247L21.4948 39.8036C22.319 39.9338 23.1603 40 23.9963 40H23.9952ZM26.4956 39.8057C27.3219 39.6754 28.1429 39.4801 28.9372 39.2228L27.2611 34.0424C26.7379 34.2122 26.1956 34.3414 25.65 34.4268L26.4956 39.8057ZM19.0521 39.2196L20.7325 34.0403C20.2083 33.8706 19.6948 33.657 19.2047 33.4072L16.73 38.2576C17.4741 38.6377 18.2556 38.9612 19.0521 39.2196ZM31.2582 38.264C32.0035 37.885 32.7241 37.443 33.401 36.9508L30.197 32.5477C29.7518 32.8723 29.2778 33.1627 28.7878 33.4115L31.2582 38.264ZM14.5883 36.9422L17.7955 32.5413C17.3524 32.2189 16.9296 31.8559 16.5368 31.464L12.6837 35.3119L12.6869 35.3151C13.2783 35.9066 13.9179 36.4543 14.5883 36.9422ZM35.28 35.3482L35.3131 35.3141C35.9024 34.7247 36.4491 34.0862 36.938 33.4168L32.5383 30.2085C32.2159 30.6505 31.854 31.0733 31.4633 31.4651L31.4088 31.5206L33.26 33.2684L35.28 35.3482ZM11.0545 33.4061L15.4563 30.201C15.1318 29.7558 14.8414 29.2818 14.5915 28.7917L9.74023 31.2633C10.1192 32.0075 10.5612 32.7281 11.0545 33.4051V33.4061ZM38.2544 31.274C38.6345 30.5298 38.958 29.7483 39.2174 28.9518L34.0384 27.2703C33.8686 27.7945 33.6551 28.308 33.4053 28.7981L38.2544 31.274ZM8.78043 28.9401L13.9606 27.2628C13.7908 26.7397 13.6616 26.1973 13.5751 25.6517L8.19644 26.4994C8.32669 27.3258 8.52314 28.1468 8.78043 28.9412V28.9401ZM39.8025 26.5112C39.9327 25.6869 39.9989 24.8456 40 24.0107L34.5551 24.0075C34.5551 24.5595 34.5113 25.1157 34.4248 25.6613L39.8025 26.5112ZM13.446 23.999C13.446 23.447 13.4897 22.8896 13.5751 22.3451L8.19644 21.4974C8.06619 22.3216 8.00107 23.163 8 23.9979H13.4449L13.446 23.999ZM34.427 22.3537L39.8057 21.5091C39.6765 20.6828 39.4801 19.8617 39.2238 19.0674L34.0426 20.7415C34.2124 21.2657 34.3416 21.807 34.427 22.3526V22.3537ZM13.9606 20.7351C14.1303 20.2109 14.3438 19.6963 14.5926 19.2062L9.7413 16.7335C9.36229 17.4776 9.0388 18.2592 8.78043 19.0556L13.9595 20.7351H13.9606ZM33.4116 19.2137L38.2651 16.7452C37.8861 16 37.4441 15.2793 36.9519 14.6024L32.5479 17.8054C32.8714 18.2507 33.1618 18.7247 33.4116 19.2148V19.2137ZM15.4585 17.7969C15.7819 17.3527 16.1449 16.9278 16.5378 16.536L16.5485 16.5253L12.6986 12.6753L12.688 12.686C12.0965 13.2775 11.5477 13.9191 11.0577 14.5907L15.4585 17.7969ZM31.4825 16.5552L32.6451 15.369L35.3216 12.6934L35.3131 12.6849C34.7249 12.0966 34.0875 11.5511 33.4192 11.0631L30.2098 15.4619C30.6519 15.7844 31.0735 16.1452 31.4633 16.536L31.4825 16.5552ZM17.8083 15.4501C18.2535 15.1267 18.7275 14.8362 19.2176 14.5875L16.7503 9.73389C16.0051 10.1129 15.2844 10.5539 14.6076 11.046L17.8083 15.4501ZM28.8017 14.596L31.2796 9.74777C30.5355 9.36768 29.7551 9.04311 28.9586 8.78473L27.2749 13.9629C27.7992 14.1337 28.3127 14.3462 28.8027 14.5971L28.8017 14.596ZM20.7464 13.9565C21.2706 13.7878 21.813 13.6586 22.3574 13.5732L21.5151 8.19325C20.6898 8.32244 19.8677 8.51782 19.0734 8.77512L20.7464 13.9565ZM25.6639 13.5764L26.5158 8.19752C25.6917 8.06726 24.8504 8 24.0155 8L24.0101 13.4451C24.5621 13.4451 25.1183 13.4899 25.6639 13.5764Z" fill="white"/>
<path d="M23.9977 34.7956V29.323C23.5378 29.323 23.0789 29.2629 22.6352 29.146L21.2144 34.4329C22.1213 34.6732 23.0574 34.7956 23.9977 34.7956ZM26.7811 34.4329C27.6912 34.1914 28.5668 33.832 29.3809 33.3641L26.6256 28.6255C26.2294 28.853 25.804 29.0279 25.3613 29.1449L26.7811 34.4329ZM18.6135 33.3631L21.3699 28.6255C20.9747 28.3981 20.6087 28.118 20.2805 27.7929L20.2298 27.7435L18.4904 29.5634L16.3559 31.6311L16.3872 31.6612C17.0545 32.3243 17.8038 32.8962 18.6146 33.3631H18.6135ZM31.6083 31.6633H31.6093C32.2754 30.9991 32.8509 30.2555 33.3195 29.4507L28.5539 26.7102C28.325 27.1029 28.0432 27.4667 27.7161 27.7918L31.6083 31.6633ZM14.6695 29.4389L19.4394 26.7048C19.2106 26.311 19.0356 25.8882 18.918 25.4472L13.5963 26.8539C13.8382 27.7585 14.1999 28.6288 14.6695 29.4389ZM34.397 26.8679C34.6388 25.9665 34.7619 25.0362 34.763 24.1016L29.2568 24.0994C29.2568 24.5576 29.1963 25.0137 29.0775 25.4547L34.397 26.8679ZM18.7409 24.093C18.7409 23.6348 18.8014 23.1787 18.9212 22.7378L13.6028 21.3213C13.3599 22.2227 13.2357 23.153 13.2357 24.0876L18.742 24.093H18.7409ZM29.0786 22.7442L34.3991 21.3353C34.1562 20.4307 33.7945 19.5604 33.3249 18.7514L28.5561 21.4876C28.7849 21.8814 28.9609 22.3042 29.0786 22.7442ZM19.4448 21.4812C19.6705 21.0938 19.949 20.7344 20.2708 20.4124L20.2848 20.3985L18.3155 18.4413L16.4218 16.5001L16.3872 16.5334C15.7222 17.1944 15.1478 17.9359 14.6803 18.7385L19.4448 21.4812ZM27.7193 20.4049L29.6692 18.467L31.659 16.5828L31.6093 16.5323C30.9443 15.8713 30.196 15.2994 29.3874 14.8337L26.6289 19.5701C27.0186 19.7944 27.3814 20.0712 27.7053 20.391L27.7193 20.4049ZM21.3731 19.5669C21.7683 19.3394 22.1937 19.1656 22.6374 19.0475L21.2209 13.7596C20.3096 14.001 19.4351 14.3594 18.62 14.8273L21.3731 19.5669ZM25.3646 19.0497L26.7886 13.7628C25.8818 13.5213 24.9457 13.399 24.0053 13.3979L24.0021 18.8705C24.4631 18.8705 24.9219 18.9306 25.3657 19.0486L25.3646 19.0497Z" fill="white"/>
</svg>