<svg id="img" width="48" height="48" viewBox="0 0 48 48" fill="none" xmlns="http://www.w3.org/2000/svg">
<rect width="48" height="48" rx="24" fill="#FF0420"/>
<path d="M14.0697 32C12.2862 32 10.825 31.5852 9.68602 30.7555C8.56201 29.9111 8 28.7111 8 27.1555C8 26.8296 8.03747 26.4296 8.1124 25.9555C8.30723 24.8889 8.58449 23.6074 8.94417 22.1111C9.96328 18.037 12.5935 16 16.8348 16C17.9887 16 19.0228 16.1926 19.937 16.5778C20.8513 16.9482 21.5706 17.5111 22.0951 18.2667C22.6196 19.0074 22.8819 19.8963 22.8819 20.9333C22.8819 21.2444 22.8445 21.637 22.7696 22.1111C22.5447 23.4296 22.275 24.7111 21.9603 25.9555C21.4357 27.9852 20.529 29.5037 19.2402 30.5111C17.9512 31.5037 16.2278 32 14.0697 32ZM14.3844 28.8C15.2237 28.8 15.9355 28.5555 16.5201 28.0666C17.1195 27.5778 17.5466 26.8296 17.8014 25.8222C18.1461 24.4296 18.4083 23.2148 18.5882 22.1778C18.6482 21.8667 18.6782 21.5481 18.6782 21.2222C18.6782 19.8741 17.9662 19.2 16.5425 19.2C15.7032 19.2 14.9839 19.4444 14.3844 19.9333C13.7999 20.4222 13.3803 21.1704 13.1255 22.1778C12.8557 23.1704 12.586 24.3852 12.3162 25.8222C12.2563 26.1185 12.2263 26.4296 12.2263 26.7555C12.2263 28.1185 12.9457 28.8 14.3844 28.8Z" fill="white"/>
<path d="M25.1627 31.7778C24.9978 31.7778 24.8704 31.726 24.7805 31.6223C24.7056 31.5037 24.6831 31.3705 24.713 31.2223L27.8153 16.7778C27.8453 16.6149 27.9277 16.4815 28.0626 16.3778C28.1975 16.2741 28.3399 16.2223 28.4898 16.2223H34.4695C36.133 16.2223 37.4668 16.563 38.471 17.2445C39.4901 17.926 39.9997 18.9112 39.9997 20.2001C39.9997 20.5704 39.9547 20.9556 39.8648 21.3556C39.4901 23.0593 38.7332 24.3185 37.5943 25.1334C36.4702 25.9482 34.9266 26.3556 32.9633 26.3556H29.9285L28.8944 31.2223C28.8644 31.3853 28.7819 31.5185 28.6471 31.6223C28.5122 31.726 28.3699 31.7778 28.2199 31.7778H25.1627ZM33.1207 23.289C33.7501 23.289 34.2972 23.1186 34.7617 22.7778C35.2413 22.4371 35.556 21.9482 35.7059 21.3112C35.7509 21.0593 35.7734 20.8371 35.7734 20.6445C35.7734 20.2149 35.646 19.889 35.3912 19.6667C35.1364 19.4297 34.7018 19.3112 34.0874 19.3112H31.3897L30.5354 23.289H33.1207Z" fill="white"/>
</svg>
