<svg width="1168" height="537" viewBox="0 0 1168 537" fill="none" xmlns="http://www.w3.org/2000/svg">
<g clip-path="url(#clip0_5191_46336)">
<mask id="mask0_5191_46336" style="mask-type:luminance" maskUnits="userSpaceOnUse" x="0" y="0" width="1168" height="537">
<path d="M1168 0H0V537H1168V0Z" fill="white"/>
</mask>
<g mask="url(#mask0_5191_46336)">
<path d="M1168 0H0V537H1168V0Z" fill="#1E1E1E"/>
<path opacity="0.15" d="M1086.73 392.412C1018.69 392.227 963.59 337.014 963.59 268.931C963.59 200.847 1018.69 145.634 1086.73 145.45V392.412Z" stroke="#E3C51B" stroke-width="1.65747"/>
<path opacity="0.15" d="M589.829 -103.171C657.869 -102.987 712.969 -47.7729 712.969 20.31C712.969 88.393 657.869 143.607 589.829 143.791V-103.171Z" stroke="#E3C51B" stroke-width="1.65747"/>
<path opacity="0.15" fill-rule="evenodd" clip-rule="evenodd" d="M838.449 84.349C873.817 84.349 902.488 55.678 902.488 20.31C902.488 -15.0573 873.817 -43.7284 838.449 -43.7284C803.082 -43.7284 774.41 -15.0574 774.41 20.31H714.139C714.139 -48.3444 769.794 -104 838.449 -104C907.104 -104 962.76 -48.3444 962.76 20.31C962.76 88.965 907.104 144.62 838.449 144.62V84.349Z" stroke="#E3C51B" stroke-width="1.65747"/>
<path opacity="0.15" fill-rule="evenodd" clip-rule="evenodd" d="M1087.07 -43.7281C1051.7 -43.7281 1023.03 -15.0571 1023.03 20.31C1023.03 55.678 1051.7 84.349 1087.07 84.349C1122.44 84.349 1151.11 55.678 1151.11 20.31H1211.38C1211.38 88.965 1155.72 144.621 1087.07 144.621C1018.41 144.621 962.76 88.965 962.76 20.31C962.76 -48.3442 1018.41 -104 1087.07 -104V-43.7281Z" stroke="#E3C51B" stroke-width="1.65747"/>
<path opacity="0.15" fill-rule="evenodd" clip-rule="evenodd" d="M1023.03 517.551C1023.03 552.919 1051.7 581.59 1087.07 581.59C1122.44 581.59 1151.11 552.919 1151.11 517.551C1151.11 482.183 1122.44 453.512 1087.07 453.512V393.241C1155.72 393.241 1211.38 448.896 1211.38 517.551C1211.38 586.206 1155.72 641.861 1087.07 641.861C1018.41 641.861 962.76 586.206 962.76 517.551H1023.03Z" stroke="#E3C51B" stroke-width="1.65747"/>
<path opacity="0.15" fill-rule="evenodd" clip-rule="evenodd" d="M838.449 204.892C803.081 204.892 774.41 233.563 774.41 268.931C774.41 304.298 803.081 332.969 838.449 332.969C873.817 332.969 902.488 304.298 902.488 268.931H962.76C962.76 337.585 907.104 393.241 838.449 393.241C769.794 393.241 714.139 337.585 714.139 268.931C714.139 200.276 769.794 144.62 838.449 144.62V204.892Z" stroke="#E3C51B" stroke-width="1.65747"/>
<path opacity="0.15" fill-rule="evenodd" clip-rule="evenodd" d="M774.411 517.551C774.411 552.919 803.082 581.59 838.449 581.59C873.817 581.59 902.488 552.919 902.488 517.551C902.488 482.183 873.817 453.512 838.449 453.512V393.241C907.104 393.241 962.76 448.896 962.76 517.551C962.76 586.206 907.104 641.861 838.449 641.861C769.795 641.861 714.139 586.206 714.139 517.551H774.411Z" stroke="#E3C51B" stroke-width="1.65747"/>
</g>
</g>
<defs>
<clipPath id="clip0_5191_46336">
<rect width="1168" height="537" fill="white"/>
</clipPath>
</defs>
</svg>
