<svg width="40" height="40" viewBox="0 0 40 40" fill="none" xmlns="http://www.w3.org/2000/svg">
<path d="M10.1691 13.7346C13.6022 13.7346 16.3476 16.534 16.3476 20.032C16.3476 23.5312 13.6022 26.3293 10.1691 26.3293C6.73612 26.3293 3.99069 23.5312 3.99069 20.032C3.99069 16.534 6.73612 13.7346 10.1691 13.7346ZM10.1691 30.3972C15.7899 30.3972 20.3383 25.7606 20.3383 20.032C20.3383 14.3033 15.7899 9.66797 10.1691 9.66797C4.54835 9.66797 0 14.3033 0 20.032C0 25.7606 4.54835 30.3972 10.1691 30.3972ZM24.4062 9.66797C24.0324 9.66797 23.7284 9.97683 23.7284 10.3592V13.123C23.7284 13.5042 24.0324 13.8131 24.4062 13.8131H35.2543C35.6281 13.8131 35.9321 13.5042 35.9321 13.123V10.3592C35.9321 9.97683 35.6281 9.66797 35.2543 9.66797H24.4062ZM36.6099 13.8131C36.2348 13.8131 35.9321 14.1232 35.9321 14.5043V17.2718C35.9321 17.6542 36.2348 17.9631 36.6099 17.9631H39.3222C39.696 17.9631 40 17.6542 40 17.2718V14.5043C40 14.1232 39.696 13.8131 39.3222 13.8131H36.6099ZM24.4062 22.1058C24.0324 22.1058 23.7284 22.4146 23.7284 22.7958V25.5596C23.7284 25.942 24.0324 26.2509 24.4062 26.2509H27.1185C27.4923 26.2509 27.7963 25.942 27.7963 25.5596V22.7958C27.7963 22.4146 27.4923 22.1058 27.1185 22.1058H24.4062ZM29.8296 18.6507C29.8296 18.2683 30.1336 17.9594 30.5086 17.9594H33.2198C33.5948 17.9594 33.8975 18.2683 33.8975 18.6507V21.4145C33.8975 21.7957 33.5948 22.1058 33.2198 22.1058H30.5086C30.1336 22.1058 29.8296 21.7957 29.8296 21.4145V18.6507ZM28.4741 26.2509C28.1003 26.2509 27.7963 26.561 27.7963 26.9421V29.706C27.7963 30.0871 28.1003 30.3972 28.4741 30.3972H39.3222C39.696 30.3972 40 30.0871 40 29.706V26.9421C40 26.561 39.696 26.2509 39.3222 26.2509H28.4741Z" fill="white"/>
</svg>
