<svg width="119" height="24" viewBox="0 0 119 24" fill="none" xmlns="http://www.w3.org/2000/svg">
<path d="M10.8838 5.25944C14.558 5.25944 17.4964 8.25553 17.4964 11.9993C17.4964 15.7444 14.558 18.7392 10.8838 18.7392C7.2095 18.7392 4.27113 15.7444 4.27113 11.9993C4.27113 8.25553 7.2095 5.25944 10.8838 5.25944ZM10.8838 23.093C16.8996 23.093 21.7675 18.1305 21.7675 11.9993C21.7675 5.8681 16.8996 0.906982 10.8838 0.906982C4.86799 0.906982 0 5.8681 0 11.9993C0 18.1305 4.86799 23.093 10.8838 23.093ZM114.729 23.093V12.0229C114.729 8.2857 111.789 5.25026 108.115 5.25026C104.442 5.25026 101.502 8.2857 101.502 12.0229V23.093H97.2312V12.0229C97.2312 5.90483 102.099 0.906982 108.115 0.906982C114.132 0.906982 119 5.90483 119 12.0229V23.093H114.729ZM93.6028 12.0229V23.093H89.333V20.8039V12.0229C89.333 8.28701 86.3933 5.25026 82.719 5.25026C79.0447 5.25026 76.1064 8.28701 76.1064 12.0229C76.1064 15.713 79.0447 18.7497 82.719 18.7497V23.093C76.7032 23.093 71.8353 18.1424 71.8353 12.0229C71.8353 5.90483 76.7032 0.906982 82.719 0.906982C88.7348 0.906982 93.6028 5.90483 93.6028 12.0229ZM63.8439 10.1392H50.7564C51.55 7.22579 54.1945 5.07448 57.3231 5.07448C60.4517 5.07448 63.0516 7.22579 63.8439 10.1392ZM50.9335 14.308H63.7128H67.9419C68.119 13.5905 68.2069 12.7838 68.2069 12.0216C68.2069 5.88122 63.3153 0.906982 57.3231 0.906982C51.2863 0.906982 46.438 5.88122 46.438 12.0216C46.438 18.1174 51.2863 23.093 57.3231 23.093C61.9051 23.093 65.8273 20.1795 67.4133 16.1012H62.7866C61.5536 17.8039 59.5702 18.9242 57.3231 18.9242C54.3703 18.9242 51.8583 16.9972 50.9335 14.308ZM26.1213 0.906982C25.7212 0.906982 25.3959 1.23755 25.3959 1.64682V4.60487C25.3959 5.01283 25.7212 5.3434 26.1213 5.3434H37.7318C38.1319 5.3434 38.4572 5.01283 38.4572 4.60487V1.64682C38.4572 1.23755 38.1319 0.906982 37.7318 0.906982H26.1213ZM39.1826 5.3434C38.7812 5.3434 38.4572 5.67527 38.4572 6.08323V9.04521C38.4572 9.45449 38.7812 9.78505 39.1826 9.78505H42.0856C42.4857 9.78505 42.811 9.45449 42.811 9.04521V6.08323C42.811 5.67527 42.4857 5.3434 42.0856 5.3434H39.1826ZM26.1213 14.2188C25.7212 14.2188 25.3959 14.5494 25.3959 14.9574V17.9154C25.3959 18.3247 25.7212 18.6553 26.1213 18.6553H29.0243C29.4244 18.6553 29.7497 18.3247 29.7497 17.9154V14.9574C29.7497 14.5494 29.4244 14.2188 29.0243 14.2188H26.1213ZM31.9259 10.521C31.9259 10.1117 32.2512 9.78112 32.6526 9.78112H35.5543C35.9557 9.78112 36.2797 10.1117 36.2797 10.521V13.479C36.2797 13.887 35.9557 14.2188 35.5543 14.2188H32.6526C32.2512 14.2188 31.9259 13.887 31.9259 13.479V10.521ZM30.4751 18.6553C30.075 18.6553 29.7497 18.9871 29.7497 19.3951V22.3531C29.7497 22.7611 30.075 23.093 30.4751 23.093H42.0856C42.4857 23.093 42.811 22.7611 42.811 22.3531V19.3951C42.811 18.9871 42.4857 18.6553 42.0856 18.6553H30.4751Z" fill="white"/>
</svg>
