<svg xmlns="http://www.w3.org/2000/svg" width="103" height="100" fill="none"><mask id="a" width="103" height="100" x="0" y="0" maskUnits="userSpaceOnUse" style="mask-type:luminance"><path fill="#fff" d="M102.462.487H.498v99.508h101.964V.487Z"/></mask><g mask="url(#a)"><path fill="#F1ECE2" d="M93.698 77.345c-.064.048-.129.1-.197.147-.064.05-.132.095-.199.144a8.579 8.579 0 0 1-.433.29c-.108.067-.216.134-.325.198-.163.099-.323.191-.489.283-1.124.627-2.307 1.13-3.514 1.576a46.018 46.018 0 0 1-3.458 1.108 67.017 67.017 0 0 1-5.061 1.192 94.511 94.511 0 0 1-4.985.853 122.27 122.27 0 0 1-5.018.621c-.55.058-1.1.11-1.65.163a134.807 134.807 0 0 1-4.962.363c-1.238.07-2.476.123-3.713.162-.225.007-.449.016-.676.022l-.62.018c.506-.626 1.013-1.25 1.477-1.91.067-.083.135-.166.2-.252a86.574 86.574 0 0 0 3.006-4.31c.098-.005.197-.008.292-.014.608-.034 1.216-.074 1.824-.114.46-.031.921-.064 1.382-.102a123.32 123.32 0 0 0 9.625-1.105c.931-.144 1.856-.304 2.777-.473 2.156-.4 4.293-.878 6.4-1.48a55.089 55.089 0 0 0 2.076-.64c.347.062.664.207.989.327.286.104.571.214.858.328.807.32 1.6.673 2.367 1.081.304.16.602.33.897.507.39.237.77.485 1.127.77.105.084.135.117.095.167a.48.48 0 0 1-.098.086l.006-.006Z"/><path fill="#5E93FF" d="M63.84 92.181a.226.226 0 0 1-.203.016.211.211 0 0 1 .049-.025c.028-.009.052-.009.08-.009.024 0 .052.006.077.018h-.004Zm-.274.016a.369.369 0 0 1-.256.015c.084-.049.17-.043.255-.015Zm-.326.015a.36.36 0 0 1-.255.015c.083-.052.166-.046.255-.015Zm-.325.016a.324.324 0 0 1-.252.012s.006 0 .01-.003c.08-.04.162-.04.242-.01Zm-.498-.003a.301.301 0 0 1 .172.016.353.353 0 0 1-.255.015.308.308 0 0 1 .083-.031Zm-.285.005c.043 0 .086.01.132.022a.345.345 0 0 1-.252.013.254.254 0 0 1 .12-.037v.003Zm-.255.023c.021.003.04.009.058.015a.352.352 0 0 1-.251.015.242.242 0 0 1 .18-.03h.014Zm-.267.029a.437.437 0 0 1-.301.012.413.413 0 0 1 .3-.012Zm-.375.014a.33.33 0 0 1-.252.012.278.278 0 0 1 .252-.012Zm21.547-19.604c.04.006.086.006.13.012.054.006.11.022.153.068a.78.78 0 0 1-.323-.09.05.05 0 0 1 .021.004.06.06 0 0 1 .022.003l-.003.003Z"/><path fill="#3180F4" d="M36.008 99.78a.474.474 0 0 1 .024.052l-1.714.006.028-.056h1.658l.004-.003Z"/><path fill="#FDBF41" d="M87.466 74.083a45.39 45.39 0 0 1-2.076.639 69.207 69.207 0 0 1-6.4 1.48c-.922.172-1.85.329-2.777.473-3.194.5-6.403.857-9.625 1.106-.46.037-.921.07-1.382.101-.608.04-1.216.08-1.824.114l-.292.015a90.699 90.699 0 0 0 1.922-3.071 97.81 97.81 0 0 0 2.568-4.561c1.554.135 3.105.292 4.656.482.114.012.227.037.344.055.694.05 1.382.154 2.067.255.881.13 1.763.27 2.64.418 1.186.2 2.372.42 3.549.676.635.138 1.268.28 1.903.417.102.056.21.077.323.09 1.358.346 2.712.712 4.042 1.151.123.04.264.052.359.157l.003.003Z"/><path fill="#F1ECE2" d="M42.307 84.083Z"/><path fill="#404A5A" d="M24.773 96.322a.128.128 0 0 1-.107-.047h.028c.006 0 .009.004.015.004.003 0 .01 0 .012.003.006 0 .013.006.019.01 0 0 .006 0 .009.002l.018.019h.003l.003.009Zm-.107-.047c-.043 0-.083-.009-.107-.048h.033a.107.107 0 0 1 .071.045v.003h.003Zm-.107-.049c-.046 0-.09-.004-.108-.052v-.003h.003c.043 0 .083.009.105.051v.004Z"/><path fill="#404A5A" d="M24.451 96.168v.006c-.043 0-.089.007-.104-.052v-.006c.046-.007.086.003.107.052h-.003Zm-.421-.268c.031.022.068.037.102.053.024.012.049.02.073.033.044.022.083.05.111.09.01.012.018.03.028.049a.672.672 0 0 1-.381-.163l.067-.062Z"/><path fill="#F1ECE2" d="m33.88 91.273-.357.055c-.46.062-.922.098-1.385.11-.154.003-.31.007-.464.003-.157 0-.31-.006-.467-.012-.067-.003-.132-.012-.2-.018-.064-.006-.132-.015-.2-.021a.361.361 0 0 1-.214-.099c-.184-.166-.36-.338-.532-.516 1.272.184 2.544.35 3.818.501v-.003Z"/><path fill="#F1ECE2" d="M53.885 69.8c-.915 0-1.83.013-2.746.028a70.763 70.763 0 0 1-4.96 6.806c-.377.455-.758.903-1.148 1.346a52.047 52.047 0 0 1-3.084 3.234 43.026 43.026 0 0 1-2.933 2.576 33.122 33.122 0 0 1-2.463 1.803c-1.566 1.038-3.21 1.932-4.978 2.583-.897.329-1.812.596-2.758.752-.053.01-.102.031-.154.046.003.016.01.034.012.05.004.009.007.018.013.027a12.332 12.332 0 0 0 .645.894c.227.285.47.562.724.826 1.272.184 2.543.35 3.818.501.34-.052.679-.12 1.013-.2a17.531 17.531 0 0 0 2.273-.712 20.274 20.274 0 0 0 2.162-.992c.154-.08.304-.163.458-.246a29.412 29.412 0 0 0 3.04-1.932 38.818 38.818 0 0 0 3.2-2.595l.286-.26a50.698 50.698 0 0 0 1.708-1.638 61.516 61.516 0 0 0 2.675-2.902c.396-.458.783-.925 1.164-1.395.046-.055.092-.114.138-.172a72.391 72.391 0 0 0 4.303-5.964 81.111 81.111 0 0 0 1.505-2.417c-1.306-.03-2.608-.046-3.913-.046Z"/><path fill="#C18B00" d="M19.045 93.766c-.043.01-.077-.003-.092-.049.046-.01.08 0 .092.05Z"/><path fill="#FDBF41" d="M46.128 69.992c-.655.03-1.309.067-1.96.107a65.632 65.632 0 0 1-2.23 2.986 60.263 60.263 0 0 1-3.762 4.342c-.338.356-.682.71-1.035 1.054-1.403 1.373-2.874 2.669-4.456 3.839-.264.193-.528.384-.799.57a28.182 28.182 0 0 1-2.76 1.702c-.692.375-1.404.706-2.126 1.01.006.034 0 .071.015.105.102.28.21.553.326.826.113.274.236.541.365.805.258.529.547 1.044.86 1.548l.006.006c.022.03.059.059.086.086.053-.015.102-.036.154-.046a15.343 15.343 0 0 0 2.758-.753c1.769-.647 3.412-1.544 4.978-2.582a33.144 33.144 0 0 0 2.463-1.803 44.765 44.765 0 0 0 2.933-2.577 50.99 50.99 0 0 0 3.084-3.234c.39-.442.77-.89 1.149-1.345a70.778 70.778 0 0 0 4.96-6.806c-1.671.03-3.345.08-5.013.163l.004-.003Z"/><path fill="#E7AA24" d="M79.158 44.78s-.021-.004-.031-.004c.01 0 .019 0 .031.003Zm-.181.07c.052 0 .11 0 .077-.082.025 0 .049.006.077.009a.065.065 0 0 0-.037.009c-.021.015-.021.05-.015.09-.034 0-.068-.004-.102-.007a.384.384 0 0 1-.058-.006c-.04-.003-.084-.01-.123-.013a2.715 2.715 0 0 1-.277-.052c.157-.009.307.046.461.056l-.003-.004Z"/><path fill="#F1ECE2" d="M31.327 76.51c.067.011.132.02.196.032a40.715 40.715 0 0 1-4.06 3.462c-.522.387-1.044.774-1.61 1.103-.104-.452-.15-.912-.202-1.373a37.293 37.293 0 0 1-.249-4.417 74.667 74.667 0 0 0 4.223.897c.569.105 1.137.203 1.705.298l-.003-.003Z"/><path fill="#F10" d="M37.19 70.695c-.15.019-.304.03-.457.046a56.791 56.791 0 0 1-4.874 5.474c-.11.11-.225.217-.335.325l.153.027c-.052-.009-.1-.018-.153-.024a40.8 40.8 0 0 1-4.06 3.46c-.522.388-1.044.775-1.61 1.104.007.061.01.126.016.187 0 .018 0 .033.006.052.012.07.028.141.04.212.01.059.018.113.03.172l.084.43c.162.81.356 1.612.598 2.401.111.354.2.716.378 1.048a24.064 24.064 0 0 0 2.125-1.01 29.404 29.404 0 0 0 2.761-1.702c.27-.184.535-.375.799-.571 1.582-1.168 3.053-2.466 4.456-3.84.354-.344.695-.697 1.035-1.053a62.2 62.2 0 0 0 3.762-4.343 69.783 69.783 0 0 0 2.23-2.984 139.86 139.86 0 0 0-6.974.595l-.01-.006Z"/><path fill="#F1ECE2" d="M31.677 76.568a1.976 1.976 0 0 0-.154-.025c.053.01.105.019.154.025Z"/><path fill="#F10" d="M31.524 76.54a4.532 4.532 0 0 1-.197-.034l.197.03v.003Zm-1.901-.328Z"/><path fill="#FDBF41" d="M35.734 70.885a9.04 9.04 0 0 1 .998-.14 56.803 56.803 0 0 1-4.874 5.472c-.11.111-.224.218-.335.325l-.196-.03a114.87 114.87 0 0 1-1.705-.298 74.773 74.773 0 0 1-3.15-.645c-.357-.083-.716-.166-1.073-.252 0-.556.007-1.115.022-1.674.01-.331.024-.66.043-.989a82.454 82.454 0 0 1 3.66-.776 99.854 99.854 0 0 1 6.315-.98c.034-.003.068-.01.102-.013a.537.537 0 0 1 .12-.006c.024 0 .048.006.073.013v-.007Z"/><path fill="#007FFF" d="m73.096 44.043 3.67.448a.146.146 0 0 1-.028.037c-.759-.092-1.52-.18-2.279-.28-.22-.027-.442-.045-.663-.07a7.919 7.919 0 0 1-.66-.092.238.238 0 0 0-.04-.04v-.003Z"/><path fill="#F1ECE2" d="M67.107 47.842c.046-.172.09-.35.136-.522-.043.175-.09.35-.136.522Zm35.135 24.567v-5.046c-.107-.47-.254-.928-.516-1.34-.42-.663-.921-1.255-1.548-1.74-.654-.507-1.323-.983-2.045-1.389-.992-.556-2.024-1.026-3.06-1.49-.183-.082-.374-.122-.558-.196-2.34-.915-4.748-1.603-7.186-2.196a88.087 88.087 0 0 0-4.712-1.001 112.256 112.256 0 0 0-5.338-.863 149.805 149.805 0 0 0-5.347-.636c-1.554-.15-3.11-.291-4.668-.402-.918-.068-1.84-.126-2.758-.178a168.581 168.581 0 0 0-6.038-.246c-.089 0-.178-.006-.267-.006a184.886 184.886 0 0 0-5.836-.037h-.095c-2.002.018-4.005.065-6.004.148-.12.003-.24.012-.36.015a171.36 171.36 0 0 0-7.09.448c-3.468.292-6.923.688-10.36 1.229-.083.012-.163.027-.245.04-.133.466-.252.94-.418 1.397-.117.467-.234.934-.353 1.397a70.673 70.673 0 0 0-.851 3.735c.175-.03.35-.058.525-.089.23-.04.46-.077.688-.117l1.023-.165a136.739 136.739 0 0 1 7.42-.937 156.9 156.9 0 0 1 2.484-.23 171.214 171.214 0 0 1 7.313-.454c.304-.014.608-.029.912-.041.452-.018.906-.03 1.358-.046.291-.01.583-.015.878-.022 1.066-.027 2.131-.043 3.197-.052.402 0 .802-.006 1.204-.006a228 228 0 0 1 2.807.015l.802.01c.727.012 1.452.03 2.18.052.728.021 1.453.049 2.18.077.12.003.24.012.36.015.78.034 1.56.074 2.337.114.6.033 1.198.07 1.797.107a138.348 138.348 0 0 1 5.175.424c.028 0 .058.006.086.01.593.058 1.186.116 1.778.177.95.095 1.898.21 2.848.335a179.342 179.342 0 0 1 4.013.584 108.58 108.58 0 0 1 5.574 1.053 73.052 73.052 0 0 1 5.129 1.3c1.358.398 2.703.847 4.02 1.372.333.129.658.267.986.405.498.215.987.452 1.472.691.12.059.239.117.36.178.091.047.186.093.279.139.123.061.245.123.365.19.154.083.304.172.446.27.546.378 1.108.734 1.615 1.164.116.102.23.203.341.31a5.912 5.912 0 0 1 .924.99 4.718 4.718 0 0 1 .538.973c.046.11.085.224.122.338.025.08.053.163.077.242 0 0 0 .007.003.01v-.01c.065-.34.025-.684.028-1.028l.009.009Z"/><path fill="#FDBF41" d="M102.263 66.697a608.21 608.21 0 0 0 0-3.82c0-.587-.006-1.177-.009-1.764-.101-.331-.172-.672-.322-.989-.384-.795-.958-1.434-1.622-2.005-.725-.627-1.526-1.146-2.368-1.603a28.047 28.047 0 0 0-3.79-1.723 54.94 54.94 0 0 0-4.597-1.477 85.54 85.54 0 0 0-7.7-1.72 127.185 127.185 0 0 0-4.309-.688c-.681-.096-1.366-.185-2.051-.27a115.4 115.4 0 0 0-4.598-.504c-.285-.028-.568-.068-.854-.09a680.785 680.785 0 0 0-3.977-.294c-.774-.056-1.548-.11-2.322-.15-1.007-.05-2.014-.087-3.022-.123h-.027c-1.054-.037-2.104-.077-3.158-.096a211.51 211.51 0 0 0-2.785-.027c-.409 0-.817-.003-1.229-.003-1.628 0-3.252.024-4.877.07h-.07c-1.908.056-3.818.132-5.722.255-1.465.092-2.93.175-4.392.298-.593.05-1.182.123-1.772.181-2.06.206-4.115.446-6.164.734l-.07.01a84.937 84.937 0 0 0-2.206 6.455l-.046.163c.08-.012.163-.028.246-.04 3.437-.54 6.892-.94 10.359-1.228a176.443 176.443 0 0 1 7.45-.464c2-.083 4.003-.13 6.005-.148h.095a205.2 205.2 0 0 1 5.836.037c.089 0 .178.006.267.006a168.49 168.49 0 0 1 6.038.246c.918.052 1.84.11 2.758.178 1.557.114 3.114.252 4.668.403a148.456 148.456 0 0 1 5.347.635c1.784.246 3.566.532 5.338.863 1.579.295 3.15.62 4.711 1.002 2.439.592 4.846 1.28 7.187 2.195.184.074.375.114.559.197 1.035.467 2.066.934 3.059 1.49.721.405 1.39.881 2.045 1.388.627.485 1.128 1.078 1.548 1.741.261.412.405.87.516 1.34.043-.222.018-.446.018-.667l.009.006Z"/><path fill="#F1ECE2" d="M66.155 18.549c.847 1.324 1.462 2.755 1.925 4.253.145.464.274.931.39 1.401.194.783.344 1.579.464 2.377.034.234.068.467.098.703.059.47.11.94.154 1.41l.055.706a41.66 41.66 0 0 1 .09 3.855 55.377 55.377 0 0 1-.252 4.032 66.656 66.656 0 0 1-.98 6.342 122.246 122.246 0 0 0-3.818-.248c-.61-.028-1.225-.062-1.84-.093a69.426 69.426 0 0 0 1.039-5.386c.3-2.006.516-4.018.595-6.042.065-1.72.056-3.442-.083-5.162a32.134 32.134 0 0 0-.617-4.26c-.347-1.582-.835-3.117-1.535-4.582a22.158 22.158 0 0 0-.928-1.69c.267-.085.547-.095.82-.122a10.666 10.666 0 0 1 .799-.052c.2-.003.399-.003.599 0a11.666 11.666 0 0 1 .74.036.488.488 0 0 1 .233.08c.04.025.08.059.117.092a9.906 9.906 0 0 1 .798.82c.421.476.799.983 1.146 1.524l-.01.006Z"/><path fill="#FDBF41" d="M63.366 22.437c.307 1.403.5 2.825.618 4.26.14 1.72.15 3.442.083 5.162a53.893 53.893 0 0 1-.596 6.041 69.164 69.164 0 0 1-1.038 5.387c-.464-.021-.93-.046-1.395-.064-1.062-.04-2.122-.065-3.184-.086-.397-.01-.793-.016-1.186-.022.387-1.459.728-2.93 1.02-4.41.22-1.109.411-2.224.58-3.341.11-.75.209-1.5.295-2.252.089-.786.16-1.575.209-2.368.052-.844.086-1.692.104-2.536a36.807 36.807 0 0 0-.098-3.394 41.934 41.934 0 0 0-.221-2.233A27.134 27.134 0 0 0 58 19.565a19.236 19.236 0 0 0-.71-2.355c.203-.13.437-.194.66-.277a16.81 16.81 0 0 1 1.38-.445c.467-.126.936-.234 1.415-.313.034-.007.065-.016.099-.016.021 0 .04 0 .058.006.326.553.651 1.106.928 1.69.7 1.465 1.188 3 1.535 4.582Z"/><path fill="#3180F4" d="M76.717 19.832s-.012-.009-.012-.015v-.012l.015.009-.006.015.003.003Z"/><path fill="#007FFF" d="M102.235 79.491c.003-.08.009-.16.009-.24 0-1.314.004-2.631.004-3.946 0-.568-.01-1.136-.013-1.704 0-.034.016-.071.013-.105-.01-.021-.022-.037-.031-.055v.006c0-.003 0-.006-.003-.01-.025-.082-.052-.162-.077-.245a4.449 4.449 0 0 0-.123-.338 4.473 4.473 0 0 0-.144-.325 4.515 4.515 0 0 0-.393-.648 4.88 4.88 0 0 0-.547-.64 6.614 6.614 0 0 0-.378-.35 5.395 5.395 0 0 0-.341-.31c-.507-.43-1.068-.786-1.615-1.163a5.515 5.515 0 0 0-.446-.27c-.12-.065-.242-.13-.365-.191l-.28-.138c-.119-.062-.239-.12-.359-.178-.485-.24-.974-.476-1.47-.691-.33-.139-.655-.277-.987-.406a46.997 46.997 0 0 0-4.02-1.373 66.697 66.697 0 0 0-3.08-.826 78.695 78.695 0 0 0-2.05-.473c-.684-.147-1.369-.288-2.057-.424a99.185 99.185 0 0 0-3.516-.63c-.393-.06-.783-.122-1.176-.18a176.03 176.03 0 0 0-2.838-.403 87.877 87.877 0 0 0-2.847-.334l-1.778-.179c-.028 0-.059-.006-.086-.009-.827-.083-1.653-.16-2.482-.227-.897-.074-1.797-.135-2.694-.197a116.24 116.24 0 0 0-1.796-.107c-.78-.043-1.56-.083-2.337-.114-.12-.006-.24-.012-.36-.015a174.328 174.328 0 0 0-4.361-.129 2142.298 2142.298 0 0 1-1.548-.019c-.688-.006-1.376-.009-2.06-.006a184.247 184.247 0 0 0-4.401.058c-.292.007-.584.016-.879.022-.451.012-.906.028-1.357.046-.304.012-.608.028-.913.04a170.577 170.577 0 0 0-7.313.454c-.828.071-1.658.148-2.484.23a137.375 137.375 0 0 0-7.42.938c-.34.052-.682.107-1.022.166-.23.036-.458.076-.688.116l-.526.09c.25-1.254.535-2.498.851-3.735.12-.467.237-.93.353-1.398.166-.457.286-.93.418-1.397l.046-.163a84.536 84.536 0 0 1 2.205-6.456 86.821 86.821 0 0 1 2.881-6.633 83.852 83.852 0 0 1 4.65-8.382 71.087 71.087 0 0 1 5.248-7.285c.04-.046.071-.101.108-.15.574-.658 1.14-1.32 1.726-1.969 1.91-2.116 3.968-4.075 6.247-5.792.562-.424 1.142-.823 1.717-1.232a.33.33 0 0 1 .178-.046c.027-.083.104-.12.169-.16a24.345 24.345 0 0 1 3.685-1.962c.046-.018.09-.043.139-.058l.042-.01c.016 0 .031-.006.047-.006.202-.129.436-.193.66-.276a15.075 15.075 0 0 1 2.795-.759c.033-.006.064-.015.098-.015.021 0 .04 0 .058.006.267-.086.547-.095.82-.123.145-.015.289-.027.43-.037.123-.006.246-.012.369-.015.2-.003.4-.003.599 0 .138.003.28.01.417.015a11.259 11.259 0 0 1 .375.028.484.484 0 0 1 .181.074c.04.024.08.058.117.092a9.838 9.838 0 0 1 .799.82c.42.476.798.983 1.145 1.523.848 1.324 1.462 2.755 1.926 4.254.144.463.273.93.39 1.4.193.784.344 1.579.463 2.377.034.234.068.467.099.704.058.47.11.94.153 1.41l.056.706c.086 1.284.122 2.567.089 3.854a55.433 55.433 0 0 1-.252 4.033 66.885 66.885 0 0 1-.98 6.342c.206.015.412.03.617.049 1.478.123 2.952.27 4.426.405a.243.243 0 0 0-.04-.04c1.222.15 2.448.298 3.67.449a.144.144 0 0 1-.027.037l.22.03c.246-1.21.468-2.42.655-3.639.166-1.093.313-2.19.427-3.29a54.04 54.04 0 0 0 .251-3.092c.025-.498.053-.998.084-1.496.003-.064-.031-.15.07-.178 0-.927-.006-1.858-.009-2.785-.05-.022-.052-.065-.058-.111-.012-.187-.034-.372-.04-.559a37.56 37.56 0 0 0-.341-4.02 31.097 31.097 0 0 0-.903-4.367c-.102-.36-.187-.722-.347-1.063l-.034-.123s-.013-.01-.013-.015v-.013c-.009-.043-.015-.086-.03-.129-.593-1.71-1.367-3.332-2.432-4.806-1.026-1.422-2.264-2.61-3.79-3.495-.572-.332-1.192-.565-1.778-.863-.053-.028-.12-.022-.182-.034-.052-.068-.135-.086-.205-.12-1.386-.614-2.768-1.228-4.156-1.836-.178-.08-.34-.197-.54-.221-.034-.013-.068-.022-.102-.034-.236-.077-.479-.132-.706-.24a.506.506 0 0 1-.062-.021l-.03-.01h-.006c-.025.016-.04.004-.056-.018-.445-.114-.89-.2-1.342-.261a11.627 11.627 0 0 0-2.288-.101c-.433.018-.863.058-1.293.116-.75.105-1.492.261-2.23.464-.104.03-.211.059-.316.092a22.943 22.943 0 0 0-3.98 1.625 27.29 27.29 0 0 0-1.262.691c-.381.218-.756.442-1.128.679-.122.076-.245.156-.368.236-.123.08-.246.16-.366.243a23.05 23.05 0 0 0-.718.5c-.117.087-.237.173-.354.258v.025c0 .006-.006.012-.009.018-.009.01-.021.013-.04.013h-.003v.015a.024.024 0 0 1-.012.022c-.006.003-.012.003-.025 0-.003 0-.009 0-.012-.007a29.4 29.4 0 0 0-2.177 1.68c-.034.028-.068.059-.102.086-.22.188-.442.378-.66.572v.015c0 .015-.006.024-.015.034l-.01.006a.057.057 0 0 1-.024.006.139.139 0 0 1-.025.034c-.012.012-.021.024-.036.034a.151.151 0 0 1-.065.027c0 .028-.006.043-.018.05-.019.012-.053.002-.077.005-.083.087-.17.172-.252.255-.006.007-.01.013-.015.016v.012c0 .012-.007.019-.013.028h-.003s-.018.009-.037.009c-.073.061-.153.117-.224.181l-.018.016c-.27.254-.544.51-.811.77-.019.019-.037.034-.052.05-.083.082-.17.16-.255.239-.215.2-.436.393-.642.602-.11.114-.224.227-.335.338a63.703 63.703 0 0 0-1.882 1.978 74.068 74.068 0 0 0-2.276 2.638c-.105.129-.212.255-.317.384a2.414 2.414 0 0 0-.11.157c-.028.042-.055.085-.083.125a1.74 1.74 0 0 1-.068.09l-.021.024a.647.647 0 0 1-.108.098c0 .01-.003.013-.006.019 0 .006 0 .012-.006.018 0 .003-.006.006-.01.01l-.02.009c-.019.086-.09.128-.148.184-.003 0-.006.006-.01.01a.226.226 0 0 0-.058.082c-.003.012-.009.021-.012.034v.015c0 .015-.006.025-.018.034 0 0-.006 0-.006.003h-.025l-.408.507c-.007.009-.016.018-.022.027a.184.184 0 0 1 0 .059c0 .015-.01.024-.015.037 0 .003-.006.009-.006.012a.147.147 0 0 1-.034.028.266.266 0 0 1-.053.021l-.064.07c-.01.01-.015.02-.022.025-.018.019-.033.04-.049.059-.347.466-.694.936-1.04 1.403a.044.044 0 0 1-.016.034l-.006.006a.035.035 0 0 1-.025.01c-.24.337-.485.672-.722 1.013l-.138.202c-.353.52-.685 1.054-1.041 1.57-.178.258-.347.522-.516.783-.172.261-.344.522-.531.777-.298.409-.553.854-.814 1.287-.114.187-.227.375-.338.562-1.262 2.094-2.488 4.21-3.532 6.425-.061.129-.132.249-.203.371-.07.12-.144.243-.205.366a93.92 93.92 0 0 0-1.041 2.159c-.126.27-.25.54-.375.814a141.075 141.075 0 0 0-1.075 2.43c-.083.19-.163.383-.243.577-.101.24-.202.479-.3.721-.35.851-.689 1.711-1.017 2.571-.095.252-.19.504-.283.759a190.42 190.42 0 0 0-.933 2.635c-.102.291-.197.586-.29.881-.113.36-.223.719-.334 1.078l-.242.771c-.188.574-.406 1.142-.48 1.747-.003.031-.04.059-.058.086-.092.252-.147.51-.209.768-.03.123-.067.246-.104.369a18.88 18.88 0 0 0-.108.368c-.141.529-.28 1.06-.408 1.591a75.643 75.643 0 0 0-.697 3.078c-.099.476-.194.955-.283 1.434-.07.38-.141.759-.206 1.14-.058.334-.11.669-.166 1.004a61.4 61.4 0 0 0-.19 1.277 72.777 72.777 0 0 0-.467 4.315c-.021.304-.043.605-.058.91a44.56 44.56 0 0 0-.046.909c-.025.605-.043 1.213-.062 1.818-.003.138-.003.276-.006.415v.125c-.003.777.028 1.551.052 2.322 0 .034.007.07.007.104a31.462 31.462 0 0 0 .153 2.092c.04.378.083.759.132 1.136.006.055.016.108.022.163.104.768.224 1.533.374 2.291a26.155 26.155 0 0 0 1.189 4.239c.38 1 .823 1.975 1.367 2.902.893 1.526 1.984 2.878 3.375 3.955.166.13.335.252.507.375.166.114.344.218.516.323.03.021.067.036.101.052.025.012.05.021.074.034a.282.282 0 0 1 .138.139v-.007c.046-.007.086.003.107.052h.004c.043 0 .082.012.104.052.012 0 .021 0 .03.003h.004a.111.111 0 0 1 .07.046v.003h.028c.006 0 .01.003.018.003.003 0 .01 0 .013.003.006 0 .012.007.018.01 0 0 .006 0 .01.003l.018.018h.003c.058.062.138.077.212.11 1.532.68 3.068 1.359 4.6 2.037.759.335 1.512.688 2.313.91.802.22 1.616.37 2.448.405h1.658a9.762 9.762 0 0 0 1.198-.126c1.612-.243 3.16-.72 4.656-1.36 2.74-1.177 5.212-2.783 7.53-4.642a52.56 52.56 0 0 0 1.503-1.256c1.722.031 3.442.04 5.165.022 1.64-.019 3.283-.046 4.923-.111a.283.283 0 0 1 .252-.012h.074a.406.406 0 0 1 .3-.012h.075a.24.24 0 0 1 .18-.031h.01l.058.019h.074a.255.255 0 0 1 .12-.038c.043 0 .086.01.132.022h.074a.286.286 0 0 1 .083-.03.308.308 0 0 1 .172.015h.07s.006 0 .01-.003c.08-.04.162-.04.242-.01h.07c.084-.052.166-.046.256-.015h.07c.083-.049.17-.043.255-.015h.07a.211.211 0 0 1 .05-.025c.028-.009.052-.009.08-.009.024 0 .052.006.077.018.374-.018.746-.03 1.12-.052 2.87-.17 5.728-.396 8.585-.712 4.336-.483 8.645-1.13 12.902-2.101 2.9-.66 5.758-1.453 8.523-2.567 1.483-.6 2.923-1.284 4.257-2.181.801-.54 1.544-1.149 2.14-1.926.375-.494.679-1.026.795-1.646a.257.257 0 0 0 .068-.169c.028-.445.043-.888.003-1.333l-.025.003Zm-38.497-9.395Zm-17.712 14.5c-.13.113-.258.23-.387.344a38.067 38.067 0 0 1-2.813 2.251 30.15 30.15 0 0 1-3.04 1.932 26.1 26.1 0 0 1-1.527.773c-.36.166-.725.32-1.094.464a16.81 16.81 0 0 1-2.272.713c-.338.08-.676.147-1.014.2l-.356.054a12.86 12.86 0 0 1-1.849.114c-.157 0-.31-.006-.467-.012-.067-.003-.132-.012-.2-.018-.064-.006-.132-.015-.199-.022a.356.356 0 0 1-.215-.098 11.586 11.586 0 0 1-1.901-2.236.11.11 0 0 1-.012-.028l-.013-.049c-.027-.027-.064-.055-.086-.085l-.006-.007a15.76 15.76 0 0 1-.86-1.548 15.82 15.82 0 0 1-.365-.804 15.268 15.268 0 0 1-.326-.827c-.012-.033-.009-.067-.015-.104-.178-.332-.267-.694-.378-1.047a23.07 23.07 0 0 1-.599-2.402l-.083-.43c-.012-.059-.018-.114-.03-.172-.013-.07-.028-.141-.04-.212 0-.019 0-.034-.007-.052-.006-.061-.009-.126-.015-.188-.104-.45-.15-.912-.203-1.373a37.25 37.25 0 0 1-.248-4.416c0-.556.006-1.115.021-1.674.01-.331.025-.66.043-.989a82.567 82.567 0 0 1 3.661-.776 99.781 99.781 0 0 1 6.315-.98c.033-.003.067-.01.1-.013a.537.537 0 0 1 .12-.006c.025 0 .05.006.074.013a9.08 9.08 0 0 1 .998-.142l.458-.046a140.734 140.734 0 0 1 8.935-.703 170.837 170.837 0 0 1 7.757-.19c1.305 0 2.61.015 3.913.046a82.512 82.512 0 0 1-1.505 2.417 72.34 72.34 0 0 1-4.303 5.964c-.046.058-.092.117-.138.172-.38.473-.768.937-1.164 1.395a61.61 61.61 0 0 1-2.036 2.241c-.212.221-.424.443-.639.66a45.538 45.538 0 0 1-1.708 1.637l-.285.262.003-.003Zm3.108-.148Zm44.662-7.192a.518.518 0 0 1-.099.085c-.064.05-.128.102-.197.148-.064.049-.131.095-.199.144a7.88 7.88 0 0 1-.387.258c-.015.01-.03.018-.046.031a11.55 11.55 0 0 1-.326.2c-.162.098-.322.19-.488.282-1.124.627-2.306 1.13-3.513 1.576a46.19 46.19 0 0 1-3.459 1.108 67.358 67.358 0 0 1-5.061 1.192 94.512 94.512 0 0 1-4.984.853c-1.668.243-3.342.446-5.019.621-.55.058-1.1.11-1.649.163a134.847 134.847 0 0 1-4.963.362c-1.238.071-2.475.123-3.713.163-.224.006-.449.016-.676.022l-.62.018c.507-.626 1.013-1.25 1.477-1.91.067-.083.135-.166.2-.252a91.27 91.27 0 0 0 2.859-4.082 91.536 91.536 0 0 0 2.073-3.295 97.94 97.94 0 0 0 2.568-4.561c1.554.135 3.105.292 4.656.482.113.012.227.037.343.055.695.05 1.383.154 2.068.255.88.13 1.763.27 2.64.418a77.4 77.4 0 0 1 3.548.676c.636.138 1.269.28 1.904.417.006 0 .015 0 .021.003.006 0 .013 0 .022.004.04.006.086.006.13.012.054.006.11.021.153.067 1.358.347 2.711.713 4.041 1.152.123.04.264.052.36.157.347.061.663.206.988.325.287.105.572.215.855.329.807.32 1.6.672 2.367 1.081.304.16.602.328.897.506.39.237.77.486 1.128.772.104.082.134.116.094.165l.007-.002Z"/><path fill="#F10" d="M102.263 55.12c-.036-.733-.316-1.381-.743-1.97-.601-.84-1.379-1.494-2.22-2.07-1.434-.984-3.004-1.706-4.61-2.35-.894-.36-1.8-.68-2.715-.974a63.026 63.026 0 0 0-4.232-1.182 91.733 91.733 0 0 0-5.365-1.143 92.695 92.695 0 0 0-3.299-.553 1.097 1.097 0 0 1-.16-.012c-.04-.003-.083-.01-.122-.012a2.738 2.738 0 0 1-.277-.053 80.311 80.311 0 0 1-.982-.16l-.572-.08a5.59 5.59 0 0 0-.22-.03c-.76-.092-1.521-.181-2.28-.28-.221-.027-.442-.045-.663-.07a6.794 6.794 0 0 1-.66-.092c-1.475-.138-2.949-.286-4.426-.405l-.618-.05a121.631 121.631 0 0 0-3.817-.248c-.611-.028-1.225-.062-1.84-.093-.464-.021-.93-.046-1.394-.064-1.063-.04-2.122-.065-3.185-.086-.396-.01-.792-.015-1.185-.022 0 0 .727-2.93 1.02-4.41.22-1.108.41-2.223.58-3.341.11-.75.209-1.499.294-2.252.09-.786.16-1.575.21-2.367.052-.845.085-1.693.104-2.537a36.81 36.81 0 0 0-.099-3.394 41.84 41.84 0 0 0-.22-2.233 27.092 27.092 0 0 0-.557-3.016 19.24 19.24 0 0 0-.709-2.355c-.015 0-.03 0-.046.006-.015 0-.03.006-.043.01-.05.015-.092.04-.138.058-1.29.54-2.51 1.213-3.686 1.962-.067.043-.141.077-.169.16.283 1.784.415 3.578.43 5.384.025 2.582-.166 5.15-.519 7.708a68.62 68.62 0 0 1-1.05 5.734 76.264 76.264 0 0 1-1.28 4.893c-1.159.012-2.32.049-3.477.086a185.945 185.945 0 0 0-8.698.513c-1.763.153-3.523.325-5.276.54a86.933 86.933 0 0 0-2.88 6.634l.07-.01c2.048-.288 4.106-.527 6.163-.733.59-.059 1.18-.13 1.772-.181 1.462-.123 2.927-.206 4.392-.298 1.904-.123 3.812-.2 5.722-.255h.07a184.684 184.684 0 0 1 6.106-.068c.928.003 1.858.012 2.786.028 1.053.018 2.104.058 3.157.095h.028c1.007.037 2.014.074 3.022.123.774.037 1.548.092 2.322.15l.497.037c1.161.083 2.319.17 3.48.258.285.022.568.062.854.09 1.535.134 3.068.306 4.597.503.685.086 1.367.178 2.052.27 1.44.2 2.878.44 4.309.688a85.03 85.03 0 0 1 7.7 1.72 54.42 54.42 0 0 1 4.597 1.477 29.052 29.052 0 0 1 3.79 1.723c.841.461 1.64.977 2.367 1.603.661.569 1.238 1.207 1.622 2.006.153.316.225.657.322.989.004-.66.01-1.32.013-1.981v-2.942c0-.356.012-.716-.006-1.069l-.01-.006Z"/><path fill="#404A5A" d="M63.495 8.27c-.236-.077-.479-.132-.706-.24 0-.03.003-.06.006-.092.283.086.55.206.799.366l-.102-.034h.003Zm-.825-.289s.021.01.027.018h-.006c-.025.016-.04.004-.055-.018.012-.003.021-.006.033 0ZM34.116 25.847s-.006.024-.015.034l-.006.006a.035.035 0 0 1-.025.009v-.019s.019-.018.028-.024c.006 0 .012-.006.018-.006Zm1.264-1.613s-.02.021-.033.027a.203.203 0 0 1-.052.022v-.03c0-.01 0-.02.003-.026.006-.015.012-.03.021-.043.01-.012.025-.021.037-.033l.046-.028a.184.184 0 0 1 0 .058c0 .016-.009.025-.015.037 0 .003-.006.01-.006.012v.004Z"/><path fill="#215CB5" d="M35.864 23.585s-.006 0-.006.004h-.025l.046-.059v.016c0 .015-.006.024-.018.033l.003.006Zm.248-.377c0-.015.013-.028.025-.034a.043.043 0 0 0 .018-.006c0 .01-.003.012-.006.018 0 .006 0 .013-.006.019 0 .003-.006.006-.01.009-.005.003-.015.006-.02.01v-.016Z"/><path fill="#FEC35E" d="M57.915 5.81c.058-.025.095 0 .13.046-.053.012-.108.024-.13-.043V5.81Z"/><path fill="#FDBF41" d="M57.912 5.81h.004l-.004.004V5.81Z"/><path fill="#404A5A" d="M43.36 15.475a.487.487 0 0 0 .053-.05v.013c0 .012-.007.018-.013.028h-.003s-.018.009-.037.009Zm.36-.363a.105.105 0 0 1 .055-.015c0 .027-.006.043-.018.049-.019.012-.053.003-.077.006a.123.123 0 0 1 .04-.04Zm.23-.153s-.007.024-.016.033l-.01.007a.058.058 0 0 1-.024.006l.05-.059v.016-.003Zm3.043-2.415-.009.018c-.009.01-.021.013-.04.013.016-.019.034-.034.052-.052v.024l-.003-.003Zm-.054.034v.012c0 .013-.006.019-.013.022-.006.003-.012.003-.024 0-.003 0-.01 0-.012-.006.018-.01.033-.019.052-.028h-.003Z"/><path fill="#F1ECE2" d="M62.774 7.922c-1.518-.676-3.038-1.348-4.555-2.027-.061-.028-.123-.006-.178-.04-.052.012-.108.025-.13-.043-.06.028-.119 0-.177-.021-1.33-.4-2.69-.522-4.076-.452-1.833.095-3.59.544-5.298 1.204a23.306 23.306 0 0 0-2.417 1.09c-.2.102-.396.206-.596.314a33.199 33.199 0 0 0-3.012 1.87 38.42 38.42 0 0 0-.605.427l-.12.086c-.48.35-.95.706-1.41 1.075a49.234 49.234 0 0 0-3.335 2.918c-2.976 2.84-5.62 5.976-8.04 9.3-.062.085-.123.174-.185.26 0 0-.006.022-.012.028a.049.049 0 0 1-.028.012l-.65.928a77.189 77.189 0 0 0-2.052 3.062c-.258.399-.51.801-.76 1.207-.22.362-.441.721-.66 1.084a108.208 108.208 0 0 0-1.357 2.334c-.015.03-.037.058-.055.089a.204.204 0 0 1-.025.089 58.926 58.926 0 0 0-.442.802 98.447 98.447 0 0 0-2.085 4.02 103.469 103.469 0 0 0-5.006 12.137 106.03 106.03 0 0 0-1.56 5.086l-.01.037c-.218.78-.42 1.563-.611 2.35a82.433 82.433 0 0 0-.5 2.128 92.084 92.084 0 0 0-.464 2.266c-.013.059-.022.117-.034.176-.003.021-.01.042-.012.067l-.068.347a77.769 77.769 0 0 0-.814 5.67l-.061.626c0 .016-.003.03-.003.046-.016.16-.025.274-.037.387a63.211 63.211 0 0 0-.181 3.127c0 .067 0 .135-.007.202a46.214 46.214 0 0 0 .166 5.839 35.011 35.011 0 0 0 .633 4.177 25.272 25.272 0 0 0 1.367 4.46c.043.1.083.199.129.3l.132.298a17.786 17.786 0 0 0 .936 1.806c.59.995 1.284 1.92 2.107 2.755.215.22.44.43.67.63.433.377.893.724 1.385 1.035.092.058.2.091.267.18.01.013.019.028.025.043.046-.009.08 0 .092.05.19.046.344.174.519.252l2.798 1.244c.531.236 1.066.466 1.6.7l.067-.062c-.172-.107-.35-.209-.516-.323a10.35 10.35 0 0 1-.506-.374c-1.392-1.08-2.482-2.43-3.376-3.956-.543-.927-.985-1.9-1.366-2.902l-.028-.07a26.141 26.141 0 0 1-1.16-4.169 38.15 38.15 0 0 1-.375-2.29c-.007-.056-.016-.108-.022-.163-.05-.378-.092-.759-.132-1.137a33.782 33.782 0 0 1-.132-1.676c-.006-.139-.015-.277-.022-.415 0-.034-.003-.071-.006-.104-.027-.775-.055-1.549-.052-2.322v-.126c0-.139 0-.277.006-.415.019-.608.037-1.213.061-1.818a92.399 92.399 0 0 1 .105-1.818 68.391 68.391 0 0 1 .467-4.315 58.2 58.2 0 0 1 .19-1.278c.052-.335.108-.67.166-1.004a78.069 78.069 0 0 1 .842-4.205 82.344 82.344 0 0 1 .752-3.037c.034-.123.07-.246.108-.369.036-.122.073-.245.104-.368.064-.258.117-.516.209-.768.021-.028.055-.055.058-.086.074-.608.292-1.176.48-1.748.082-.255.162-.512.242-.77.11-.36.221-.72.335-1.078.092-.295.187-.59.288-.882.04-.114.077-.23.117-.347l.157-.442c.22-.614.436-1.232.66-1.846a104.053 104.053 0 0 1 1.843-4.628c.196-.455.396-.91.596-1.364.156-.356.316-.71.479-1.066.122-.273.248-.54.374-.814a82.13 82.13 0 0 1 1.041-2.159c.062-.126.136-.245.206-.365.07-.12.142-.243.203-.372 1.044-2.214 2.27-4.33 3.532-6.425.114-.187.224-.374.338-.562.264-.436.516-.878.814-1.287.187-.254.359-.512.53-.777.173-.26.342-.525.517-.783.356-.516.688-1.05 1.041-1.57l.138-.202c.237-.34.482-.675.722-1.013v-.019s.018-.018.027-.024c.007 0 .013-.006.019-.006l1.041-1.404c.015-.021.034-.04.05-.058l.02-.025.065-.07v-.031c0-.01 0-.019.003-.025a.14.14 0 0 1 .022-.043c.009-.012.024-.021.037-.034l.046-.027a.162.162 0 0 0 .021-.028c.135-.169.274-.338.409-.507.015-.018.03-.04.046-.058 0-.012.006-.021.012-.034a.147.147 0 0 1 .015-.03.362.362 0 0 1 .043-.053c0-.003.007-.006.01-.009.058-.055.132-.101.147-.184v-.015c0-.016.012-.028.025-.034a.043.043 0 0 0 .018-.006.657.657 0 0 0 .108-.099l.021-.024c.025-.028.046-.059.068-.09l.083-.125c.021-.031.042-.065.064-.096.015-.021.03-.043.046-.06.105-.13.212-.259.316-.385a63.588 63.588 0 0 1 4.158-4.616c.111-.114.225-.227.336-.338.208-.209.426-.402.641-.602.087-.08.172-.156.255-.24.019-.015.034-.033.053-.048.267-.258.54-.516.81-.771l.019-.016c.07-.064.15-.122.224-.18a.608.608 0 0 0 .052-.05l.016-.015c.083-.086.169-.17.252-.255a.121.121 0 0 1 .04-.04.106.106 0 0 1 .055-.015.155.155 0 0 0 .064-.028.377.377 0 0 0 .037-.034c.01-.01.015-.021.025-.034l.049-.058a28.844 28.844 0 0 1 .761-.657c.215-.181.434-.36.655-.538.494-.396 1.004-.78 1.523-1.142l.052-.028h.003a.304.304 0 0 1 .052-.055c.117-.086.237-.175.354-.258.236-.172.479-.338.718-.5.12-.08.243-.164.366-.24.123-.08.245-.16.368-.237a33.556 33.556 0 0 1 2.39-1.37 23.127 23.127 0 0 1 3.98-1.624l.316-.092a16.434 16.434 0 0 1 2.23-.464 13.912 13.912 0 0 1 2.601-.114c.329.019.654.052.98.099a11.9 11.9 0 0 1 1.342.26c.013-.003.022-.006.034 0 .012 0 .022.01.028.019l.03.01c.022.005.04.011.062.02a.92.92 0 0 1 .006-.091.054.054 0 0 0-.022-.016l.01-.006Z"/><path fill="#FDBF41" d="M57.915 5.81c-.022-.096-.114-.105-.181-.136-1.309-.58-2.617-1.164-3.931-1.738-.35-.153-.688-.332-1.05-.454-.04.024-.084.021-.127.006-.9-.295-1.833-.443-2.773-.5-.863-.053-1.73 0-2.586.113-.707.095-1.4.242-2.089.427-1.335.359-2.62.847-3.857 1.458-.476.237-.937.504-1.407.753-.156.083-.319.157-.47.246a38.163 38.163 0 0 0-3.888 2.625c-.31.24-.626.474-.915.735-.187.168-.368.34-.571.488a1.405 1.405 0 0 1-.123.083l-.101.086v.006a.25.25 0 0 1-.056.098.1.1 0 0 1-.049.022h-.037l-.03-.01a.177.177 0 0 0-.025.019c-.107.077-.166.209-.264.285a.384.384 0 0 1-.046.031c-.258.135-.415.378-.645.544-.221.16-.406.371-.608.559-1.005.924-1.953 1.904-2.893 2.893-.289.304-.547.63-.823.946-.16.181-.338.34-.495.519-.427.488-.841.989-1.262 1.48-.313.366-.608.744-.888 1.134-.22.31-.485.586-.722.884-.715.918-1.394 1.864-2.073 2.807-.669.93-1.283 1.898-1.919 2.853-.571.857-1.096 1.745-1.64 2.623-.2.326-.378.663-.58.99-.348.558-.67 1.132-.974 1.716-.19.227-.304.503-.448.758-.302.535-.59 1.075-.851 1.631-.083.178-.203.329-.289.507-.243.495-.488.989-.743 1.48-.636 1.235-1.195 2.503-1.775 3.766-.63 1.363-1.189 2.76-1.742 4.158-.374.95-.752 1.898-1.05 2.875-.05.16-.141.304-.197.46-.288.842-.577 1.68-.85 2.525-.255.777-.495 1.56-.725 2.343a99.752 99.752 0 0 0-.636 2.27 79.068 79.068 0 0 0-1.069 4.441c-.08.396-.16.792-.236 1.188a75.487 75.487 0 0 0-.688 4.07 83.095 83.095 0 0 0-.442 3.897l-.028.36a55.17 55.17 0 0 0-.126 2.146 73 73 0 0 0-.046 2.46c0 .39.04.784.037 1.177-.006.599.046 1.195.08 1.79.012.218.021.44.043.66l.012.114c.07.575.117 1.152.197 1.723.076.556.153 1.112.254 1.662.148.768.286 1.535.523 2.281.073.234.113.48.18.72.142.521.31 1.037.495 1.544.267.728.575 1.44.906 2.14a15.292 15.292 0 0 0 1.895 3.005 11.907 11.907 0 0 0 2.439 2.309c.037.028.077.052.117.077l.202.129.117.073a6.249 6.249 0 0 1 .494.341c0 .006.006.012.01.02.021.03.064.032.098.048 1.597.706 3.19 1.412 4.788 2.12.064.027.126.07.202.052l-.024-.044c-.068-.089-.175-.122-.267-.18a11.453 11.453 0 0 1-1.385-1.036c-.23-.2-.455-.412-.67-.63a14.337 14.337 0 0 1-2.107-2.754 17.603 17.603 0 0 1-.937-1.806c-.046-.102-.088-.2-.131-.301l-.13-.3c-.601-1.445-1.038-2.937-1.366-4.46a33.284 33.284 0 0 1-.264-1.364c-.16-.934-.28-1.87-.369-2.813a45.67 45.67 0 0 1-.172-2.832 48.93 48.93 0 0 1 .006-3.007l.006-.203a91.11 91.11 0 0 1 .071-1.566c.03-.519.068-1.041.11-1.56l.037-.387c0-.015.004-.03.004-.046a70.767 70.767 0 0 1 .408-3.418c.138-.965.295-1.923.467-2.878.021-.117.046-.23.067-.347.003-.022.01-.043.013-.068.012-.058.021-.116.034-.175l.082-.436a82.433 82.433 0 0 1 .881-3.959c.194-.786.397-1.57.612-2.35 0-.012.006-.024.01-.036a113.289 113.289 0 0 1 1.56-5.086 102.587 102.587 0 0 1 2.05-5.516 101.901 101.901 0 0 1 3.554-7.825c.48-.946.977-1.886 1.487-2.817.135-.248.273-.497.408-.743a.565.565 0 0 0 .034-.058.151.151 0 0 0 .025-.09c.018-.03.04-.06.055-.088.147-.261.295-.523.445-.784a114.004 114.004 0 0 1 1.573-2.635 95.898 95.898 0 0 1 1.741-2.712c.35-.525.707-1.04 1.069-1.557.215-.31.433-.617.651-.927v-.019c0-.003.003-.009.006-.012.006-.01.019-.012.03-.012.062-.086.12-.175.185-.261 2.42-3.323 5.065-6.456 8.04-9.3a48.53 48.53 0 0 1 3.336-2.918c.46-.368.93-.724 1.41-1.075l.12-.086c.2-.144.402-.285.605-.426a33.636 33.636 0 0 1 3.012-1.87c.197-.108.397-.213.596-.314.15-.077.298-.154.449-.227.129-.065.258-.126.387-.188.519-.242 1.044-.47 1.581-.675 1.708-.658 3.465-1.106 5.298-1.204 1.382-.074 2.743.049 4.076.451.058.019.116.046.178.022l.003-.003Z"/><path fill="#C18B00" d="M28.61 23.893s.018-.012.03-.012a.04.04 0 0 1-.012.027.058.058 0 0 1-.027.013v-.019c0-.003.003-.009.006-.012l.003.003Zm5.092-13.86a.1.1 0 0 1 .07-.037c.019 0 .043 0 .068.006v.006a.25.25 0 0 1-.055.099.1.1 0 0 1-.05.021H33.7l-.031-.009a.16.16 0 0 1 .037-.086h-.003Z"/><path fill="#F10" d="M52.463 3.356c-1.188-.532-2.38-1.048-3.562-1.585-1.355-.617-2.761-.998-4.25-1.069-.375 0-.753 0-1.128.003h-.439c-.75.04-1.49.15-2.224.307-2.165.461-4.18 1.309-6.111 2.371-1.944 1.07-3.75 2.347-5.467 3.747-.218.178-.455.341-.645.556a.084.084 0 0 0-.04.034v.018h-.017l-.148.117c-1.9 1.628-3.667 3.394-5.338 5.258a76.181 76.181 0 0 0-5.525 6.99c-2.549 3.624-4.806 7.426-6.818 11.373a98.756 98.756 0 0 0-3.704 8.15c-1.158 2.894-2.22 5.824-3.074 8.824-.095.332-.212.66-.307.992a85.88 85.88 0 0 0-1.781 7.491 72.685 72.685 0 0 0-.94 6.459C.787 64.964.68 66.54.686 68.122c0 .718.003 1.437.006 2.156.01.098.012.196.015.294.003.154 0 .304-.006.458.006.875.08 1.745.163 2.617.138 1.422.353 2.828.67 4.22.393 1.744.93 3.436 1.695 5.055.82 1.732 1.86 3.308 3.268 4.625.82.768 1.723 1.416 2.74 1.892.902.424 1.817.82 2.732 1.222.627.277 1.247.575 1.886.82-.037-.027-.074-.058-.11-.085 0 0-.003 0-.006-.004a6.282 6.282 0 0 0-.378-.252l-.117-.073c-.067-.043-.135-.084-.203-.13-.04-.024-.076-.051-.116-.076a12.08 12.08 0 0 1-2.439-2.31 15.297 15.297 0 0 1-1.895-3.003 23.76 23.76 0 0 1-.906-2.141 19.26 19.26 0 0 1-.494-1.545c-.065-.236-.108-.482-.182-.719-.236-.746-.377-1.513-.522-2.282-.104-.549-.178-1.105-.255-1.66-.08-.572-.129-1.15-.196-1.724-.003-.037-.01-.077-.012-.114-.022-.218-.031-.439-.043-.66-.031-.596-.083-1.191-.08-1.79 0-.39-.04-.784-.037-1.177.006-.82.015-1.64.046-2.46.028-.715.07-1.43.126-2.147l.028-.359a83.09 83.09 0 0 1 .442-3.897c.19-1.364.424-2.721.688-4.07.077-.396.156-.792.236-1.188.307-1.493.673-2.97 1.069-4.441.203-.759.415-1.517.636-2.27.23-.786.47-1.566.725-2.343.276-.845.565-1.686.85-2.525.052-.16.148-.304.197-.46.3-.977.675-1.926 1.05-2.875.553-1.397 1.112-2.792 1.742-4.158.58-1.26 1.139-2.531 1.775-3.766.252-.491.5-.986.743-1.48.086-.175.209-.329.289-.507.26-.556.55-1.096.85-1.63.145-.256.258-.532.449-.76a26.35 26.35 0 0 1 .973-1.716c.203-.322.381-.663.58-.989.541-.878 1.067-1.763 1.64-2.623.637-.955 1.25-1.922 1.92-2.853.68-.943 1.358-1.889 2.073-2.807.234-.301.498-.574.722-.884.28-.39.575-.768.888-1.134.42-.494.835-.995 1.262-1.48.157-.178.335-.338.495-.52.276-.312.534-.641.823-.945.94-.989 1.888-1.969 2.893-2.893.202-.188.387-.4.608-.56.23-.165.384-.408.645-.543.015-.009.034-.018.046-.03.098-.077.156-.21.264-.286a.096.096 0 0 0 .024-.019.159.159 0 0 1 .037-.085.1.1 0 0 1 .071-.037c.018 0 .043 0 .068.006.033-.028.067-.059.1-.086.047-.03.084-.055.124-.083a6.56 6.56 0 0 0 .57-.488c.29-.265.609-.495.916-.734a38.176 38.176 0 0 1 3.888-2.626c.154-.09.314-.163.47-.246.47-.252.93-.52 1.407-.752a21.111 21.111 0 0 1 3.857-1.46 17.242 17.242 0 0 1 2.089-.426 13.245 13.245 0 0 1 2.586-.114c.943.058 1.873.206 2.773.5.046.016.086.02.126-.005-.077-.083-.194-.083-.289-.126h.01Z"/><path fill="#F10" d="M33.735 9.688s-.015-.012-.021-.015c.01.006.015.009.021.015Z"/><path fill="#FEC35E" d="M44.65.699h-1.127c-.147.006-.295.006-.439.006-.006-.018-.015-.037-.022-.055.535 0 1.072 0 1.607-.006l-.019.055Z"/><path fill="#C18B00" d="M28.587 7.741h-.009v-.018h.022v.021h-.01l-.003-.003Z"/><path fill="url(#b)" d="M93.75 77.299c.153-.12.153-.133 0-.252a10.462 10.462 0 0 0-1.127-.77c-1.302-.79-2.693-1.392-4.119-1.914-.325-.12-.641-.264-.988-.326-.096-.107-.237-.117-.36-.156-1.33-.443-2.684-.805-4.041-1.152a.781.781 0 0 1-.323-.09c-.635-.138-1.271-.279-1.904-.417a77.348 77.348 0 0 0-3.544-.676 155.91 155.91 0 0 0-2.641-.417c-.688-.102-1.376-.206-2.07-.255-.114-.019-.228-.04-.344-.055-2.43-.298-4.862-.523-7.304-.692a165.668 165.668 0 0 0-4.785-.254 163.372 163.372 0 0 0-14.02.073 142.41 142.41 0 0 0-8.934.704c-.485.055-.977.086-1.456.19-.098-.028-.193 0-.291.01a99.52 99.52 0 0 0-6.318.979c-1.238.233-2.47.491-3.692.783l-.024.04s-.317 4.552.384 8.995c1.207.286 2.42.541 3.636.769 1.087.202 2.178.396 3.274.553 1.535.22 3.074.444 4.619.604 1.502.157 3 .32 4.505.43.891.065 1.779.141 2.67.194a174.389 174.389 0 0 0 7.567.279c1.925.025 3.854.015 5.78-.024 1.855-.04 3.71-.11 5.562-.215 2.208-.123 4.413-.298 6.615-.525 3.357-.348 6.695-.815 10.003-1.474 2.89-.578 5.746-1.284 8.517-2.304 1.207-.443 2.39-.95 3.513-1.576.572-.316 1.125-.66 1.64-1.062v.003Z" opacity=".48"/></g><defs><linearGradient id="b" x1="59.78" x2="59.354" y1="71.448" y2="82.465" gradientUnits="userSpaceOnUse"><stop offset=".16" stop-color="#191919"/><stop offset=".97" stop-color="#191919" stop-opacity="0"/></linearGradient></defs></svg>